<svg aria-roledescription="class" role="graphics-document document" viewBox="0 0 903.2750244140625 418" style="max-width: 903.2750244140625px;" class="classDiagram" xmlns="http://www.w3.org/2000/svg" width="100%" id="mermaidSvgId"><style>#mermaidSvgId{font-family:"trebuchet ms",verdana,arial,sans-serif;font-size:16px;fill:#000000;}#mermaidSvgId .error-icon{fill:#552222;}#mermaidSvgId .error-text{fill:#552222;stroke:#552222;}#mermaidSvgId .edge-thickness-normal{stroke-width:1px;}#mermaidSvgId .edge-thickness-thick{stroke-width:3.5px;}#mermaidSvgId .edge-pattern-solid{stroke-dasharray:0;}#mermaidSvgId .edge-thickness-invisible{stroke-width:0;fill:none;}#mermaidSvgId .edge-pattern-dashed{stroke-dasharray:3;}#mermaidSvgId .edge-pattern-dotted{stroke-dasharray:2;}#mermaidSvgId .marker{fill:#666;stroke:#666;}#mermaidSvgId .marker.cross{stroke:#666;}#mermaidSvgId svg{font-family:"trebuchet ms",verdana,arial,sans-serif;font-size:16px;}#mermaidSvgId p{margin:0;}#mermaidSvgId g.classGroup text{fill:#999;stroke:none;font-family:"trebuchet ms",verdana,arial,sans-serif;font-size:10px;}#mermaidSvgId g.classGroup text .title{font-weight:bolder;}#mermaidSvgId .nodeLabel,#mermaidSvgId .edgeLabel{color:#111111;}#mermaidSvgId .edgeLabel .label rect{fill:#eee;}#mermaidSvgId .label text{fill:#111111;}#mermaidSvgId .labelBkg{background:#eee;}#mermaidSvgId .edgeLabel .label span{background:#eee;}#mermaidSvgId .classTitle{font-weight:bolder;}#mermaidSvgId .node rect,#mermaidSvgId .node circle,#mermaidSvgId .node ellipse,#mermaidSvgId .node polygon,#mermaidSvgId .node path{fill:#eee;stroke:#999;stroke-width:1px;}#mermaidSvgId .divider{stroke:#999;stroke-width:1;}#mermaidSvgId g.clickable{cursor:pointer;}#mermaidSvgId g.classGroup rect{fill:#eee;stroke:#999;}#mermaidSvgId g.classGroup line{stroke:#999;stroke-width:1;}#mermaidSvgId .classLabel .box{stroke:none;stroke-width:0;fill:#eee;opacity:0.5;}#mermaidSvgId .classLabel .label{fill:#999;font-size:10px;}#mermaidSvgId .relation{stroke:#666;stroke-width:1;fill:none;}#mermaidSvgId .dashed-line{stroke-dasharray:3;}#mermaidSvgId .dotted-line{stroke-dasharray:1 2;}#mermaidSvgId #compositionStart,#mermaidSvgId .composition{fill:#666!important;stroke:#666!important;stroke-width:1;}#mermaidSvgId #compositionEnd,#mermaidSvgId .composition{fill:#666!important;stroke:#666!important;stroke-width:1;}#mermaidSvgId #dependencyStart,#mermaidSvgId .dependency{fill:#666!important;stroke:#666!important;stroke-width:1;}#mermaidSvgId #dependencyStart,#mermaidSvgId .dependency{fill:#666!important;stroke:#666!important;stroke-width:1;}#mermaidSvgId #extensionStart,#mermaidSvgId .extension{fill:transparent!important;stroke:#666!important;stroke-width:1;}#mermaidSvgId #extensionEnd,#mermaidSvgId .extension{fill:transparent!important;stroke:#666!important;stroke-width:1;}#mermaidSvgId #aggregationStart,#mermaidSvgId .aggregation{fill:transparent!important;stroke:#666!important;stroke-width:1;}#mermaidSvgId #aggregationEnd,#mermaidSvgId .aggregation{fill:transparent!important;stroke:#666!important;stroke-width:1;}#mermaidSvgId #lollipopStart,#mermaidSvgId .lollipop{fill:#eee!important;stroke:#666!important;stroke-width:1;}#mermaidSvgId #lollipopEnd,#mermaidSvgId .lollipop{fill:#eee!important;stroke:#666!important;stroke-width:1;}#mermaidSvgId .edgeTerminals{font-size:11px;line-height:initial;}#mermaidSvgId .classTitleText{text-anchor:middle;font-size:18px;fill:#000000;}#mermaidSvgId :root{--mermaid-font-family:"trebuchet ms",verdana,arial,sans-serif;}</style><g><defs><marker orient="auto" markerHeight="240" markerWidth="190" refY="7" refX="18" class="marker aggregation class" id="mermaidSvgId_class-aggregationStart"><path d="M 18,7 L9,13 L1,7 L9,1 Z"></path></marker></defs><defs><marker orient="auto" markerHeight="28" markerWidth="20" refY="7" refX="1" class="marker aggregation class" id="mermaidSvgId_class-aggregationEnd"><path d="M 18,7 L9,13 L1,7 L9,1 Z"></path></marker></defs><defs><marker orient="auto" markerHeight="240" markerWidth="190" refY="7" refX="18" class="marker extension class" id="mermaidSvgId_class-extensionStart"><path d="M 1,7 L18,13 V 1 Z"></path></marker></defs><defs><marker orient="auto" markerHeight="28" markerWidth="20" refY="7" refX="1" class="marker extension class" id="mermaidSvgId_class-extensionEnd"><path d="M 1,1 V 13 L18,7 Z"></path></marker></defs><defs><marker orient="auto" markerHeight="240" markerWidth="190" refY="7" refX="18" class="marker composition class" id="mermaidSvgId_class-compositionStart"><path d="M 18,7 L9,13 L1,7 L9,1 Z"></path></marker></defs><defs><marker orient="auto" markerHeight="28" markerWidth="20" refY="7" refX="1" class="marker composition class" id="mermaidSvgId_class-compositionEnd"><path d="M 18,7 L9,13 L1,7 L9,1 Z"></path></marker></defs><defs><marker orient="auto" markerHeight="240" markerWidth="190" refY="7" refX="6" class="marker dependency class" id="mermaidSvgId_class-dependencyStart"><path d="M 5,7 L9,13 L1,7 L9,1 Z"></path></marker></defs><defs><marker orient="auto" markerHeight="28" markerWidth="20" refY="7" refX="13" class="marker dependency class" id="mermaidSvgId_class-dependencyEnd"><path d="M 18,7 L9,13 L14,7 L9,1 Z"></path></marker></defs><defs><marker orient="auto" markerHeight="240" markerWidth="190" refY="7" refX="13" class="marker lollipop class" id="mermaidSvgId_class-lollipopStart"><circle r="6" cy="7" cx="7" fill="transparent" stroke="black"></circle></marker></defs><defs><marker orient="auto" markerHeight="240" markerWidth="190" refY="7" refX="1" class="marker lollipop class" id="mermaidSvgId_class-lollipopEnd"><circle r="6" cy="7" cx="7" fill="transparent" stroke="black"></circle></marker></defs><g class="root"><g class="clusters"></g><g class="edgePaths"><path marker-start="url(#mermaidSvgId_class-extensionStart)" style=";" class="edge-thickness-normal edge-pattern-solid relation" id="id_Employee_Developer_1" d="M351.781,105.501L316.252,115.917C280.724,126.334,209.666,147.167,174.137,165.417C138.608,183.667,138.608,199.333,138.608,207.167L138.608,215"></path><path marker-start="url(#mermaidSvgId_class-extensionStart)" style=";" class="edge-thickness-normal edge-pattern-solid relation" id="id_Employee_Manager_2" d="M454.108,161L454.108,162.167C454.108,163.333,454.108,165.667,454.108,174.667C454.108,183.667,454.108,199.333,454.108,207.167L454.108,215"></path><path marker-start="url(#mermaidSvgId_class-extensionStart)" style=";" class="edge-thickness-normal edge-pattern-solid relation" id="id_Employee_Team_3" d="M556.425,105.734L591.543,116.112C626.662,126.49,696.9,147.245,732.019,161.789C767.138,176.333,767.138,184.667,767.138,188.833L767.138,193"></path></g><g class="edgeLabels"><g><rect style="stroke: none" class="background"></rect></g><g><rect style="stroke: none" class="background"></rect></g><g><rect style="stroke: none" class="background"></rect></g><g class="edgeLabel"><g transform="translate(0, 0)" class="label"><text y="-10.1"><tspan dy="1.1em" y="-0.1em" x="0" class="text-outer-tspan"></tspan></text></g></g><g class="edgeLabel"><g transform="translate(0, 0)" class="label"><text y="-10.1"><tspan dy="1.1em" y="-0.1em" x="0" class="text-outer-tspan"></tspan></text></g></g><g class="edgeLabel"><g transform="translate(0, 0)" class="label"><text y="-10.1"><tspan dy="1.1em" y="-0.1em" x="0" class="text-outer-tspan"></tspan></text></g></g></g><g class="nodes"><g transform="translate(454.10833740234375, 75.5)" id="classId-Employee-70" class="node default"><g class="basic label-container"><path style="" fill="#eee" stroke-width="0" stroke="none" d="M-85.05416870117188 -67.5 L85.05416870117188 -67.5 L85.05416870117188 67.5 L-85.05416870117188 67.5"></path><path style="" fill="none" stroke-width="1.3" stroke="#999" d="M-85.05416870117188 -67.5 C-20.392782454750233 -67.5, 44.26860379167141 -67.5, 85.05416870117188 -67.5 M-85.05416870117188 -67.5 C-37.64632879241176 -67.5, 9.761511116348359 -67.5, 85.05416870117188 -67.5 M85.05416870117188 -67.5 C85.05416870117188 -37.101644436477756, 85.05416870117188 -6.703288872955504, 85.05416870117188 67.5 M85.05416870117188 -67.5 C85.05416870117188 -37.03817723078174, 85.05416870117188 -6.576354461563483, 85.05416870117188 67.5 M85.05416870117188 67.5 C45.48294877083119 67.5, 5.911728840490511 67.5, -85.05416870117188 67.5 M85.05416870117188 67.5 C26.906801883004185 67.5, -31.240564935163505 67.5, -85.05416870117188 67.5 M-85.05416870117188 67.5 C-85.05416870117188 28.604150816496947, -85.05416870117188 -10.291698367006106, -85.05416870117188 -67.5 M-85.05416870117188 67.5 C-85.05416870117188 29.91812811114928, -85.05416870117188 -7.663743777701441, -85.05416870117188 -67.5"></path></g><g transform="translate(-41.17499923706055, -47.5)" class="annotation-group text"><g transform="translate(0,-9.5)" style="" class="label"><g><rect style="stroke: none" class="background"></rect><text style="" y="-10.1"><tspan dy="1.1em" y="-0.1em" x="0" class="text-outer-tspan"><tspan font-weight="normal" class="text-inner-tspan" font-style="normal">«interface»</tspan></tspan></text></g></g></g><g transform="translate(-36.43333435058594, -28.5)" class="label-group text"><g transform="translate(0,-9.5)" style="font-weight: bolder" class="label"><g><rect style="stroke: none" class="background"></rect><text style="" y="-10.1"><tspan font-weight="" dy="1.1em" y="-0.1em" x="0" class="text-outer-tspan"><tspan font-weight="" class="text-inner-tspan" font-style="normal">Employee</tspan></tspan></text></g></g></g><g transform="translate(-73.05416870117188, 14.5)" class="members-group text"></g><g transform="translate(-73.05416870117188, 44.5)" class="methods-group text"><g transform="translate(0,-9.5)" style="" class="label"><g><rect style="stroke: none" class="background"></rect><text style="" y="-10.1"><tspan dy="1.1em" y="-0.1em" x="0" class="text-outer-tspan"><tspan font-weight="normal" class="text-inner-tspan" font-style="normal">+showDetails()</tspan></tspan></text></g></g></g><g style="" class="divider"><path style="" fill="none" stroke-width="1.3" stroke="#999" d="M-85.05416870117188 -5.5 C-20.949725372582094 -5.5, 43.15471795600769 -5.5, 85.05416870117188 -5.5 M-85.05416870117188 -5.5 C-23.48657714216558 -5.5, 38.081014416840716 -5.5, 85.05416870117188 -5.5"></path></g><g style="" class="divider"><path style="" fill="none" stroke-width="1.3" stroke="#999" d="M-85.05416870117188 18.5 C-46.086239167904786 18.5, -7.118309634637697 18.5, 85.05416870117188 18.5 M-85.05416870117188 18.5 C-46.73636970882942 18.5, -8.418570716486968 18.5, 85.05416870117188 18.5"></path></g></g><g transform="translate(138.60833740234375, 301.5)" id="classId-Developer-71" class="node default"><g class="basic label-container"><path style="" fill="#eee" stroke-width="0" stroke="none" d="M-130.60833740234375 -86.5 L130.60833740234375 -86.5 L130.60833740234375 86.5 L-130.60833740234375 86.5"></path><path style="" fill="none" stroke-width="1.3" stroke="#999" d="M-130.60833740234375 -86.5 C-38.972324714620896 -86.5, 52.66368797310196 -86.5, 130.60833740234375 -86.5 M-130.60833740234375 -86.5 C-43.40997995348842 -86.5, 43.788377495366916 -86.5, 130.60833740234375 -86.5 M130.60833740234375 -86.5 C130.60833740234375 -27.86810950027361, 130.60833740234375 30.763780999452777, 130.60833740234375 86.5 M130.60833740234375 -86.5 C130.60833740234375 -26.421153720577784, 130.60833740234375 33.65769255884443, 130.60833740234375 86.5 M130.60833740234375 86.5 C29.90625552458384 86.5, -70.79582635317607 86.5, -130.60833740234375 86.5 M130.60833740234375 86.5 C70.51673546880289 86.5, 10.42513353526202 86.5, -130.60833740234375 86.5 M-130.60833740234375 86.5 C-130.60833740234375 41.48898806712385, -130.60833740234375 -3.5220238657523026, -130.60833740234375 -86.5 M-130.60833740234375 86.5 C-130.60833740234375 29.59267363691574, -130.60833740234375 -27.314652726168518, -130.60833740234375 -86.5"></path></g><g transform="translate(0, -66.5)" class="annotation-group text"></g><g transform="translate(-38.11666488647461, -66.5)" class="label-group text"><g transform="translate(0,-9.5)" style="font-weight: bolder" class="label"><g><rect style="stroke: none" class="background"></rect><text style="" y="-10.1"><tspan font-weight="" dy="1.1em" y="-0.1em" x="0" class="text-outer-tspan"><tspan font-weight="" class="text-inner-tspan" font-style="normal">Developer</tspan></tspan></text></g></g></g><g transform="translate(-118.60833740234375, -23.5)" class="members-group text"><g transform="translate(0,-9.5)" style="" class="label"><g><rect style="stroke: none" class="background"></rect><text style="" y="-10.1"><tspan dy="1.1em" y="-0.1em" x="0" class="text-outer-tspan"><tspan font-weight="normal" class="text-inner-tspan" font-style="normal">-String</tspan><tspan font-weight="normal" class="text-inner-tspan" font-style="normal"> name</tspan></tspan></text></g></g><g transform="translate(0,12.5)" style="" class="label"><g><rect style="stroke: none" class="background"></rect><text style="" y="-10.1"><tspan dy="1.1em" y="-0.1em" x="0" class="text-outer-tspan"><tspan font-weight="normal" class="text-inner-tspan" font-style="normal">-String</tspan><tspan font-weight="normal" class="text-inner-tspan" font-style="normal"> position</tspan></tspan></text></g></g></g><g transform="translate(-118.60833740234375, 41.5)" class="methods-group text"><g transform="translate(0,-9.5)" style="" class="label"><g><rect style="stroke: none" class="background"></rect><text style="" y="-10.1"><tspan dy="1.1em" y="-0.1em" x="0" class="text-outer-tspan"><tspan font-weight="normal" class="text-inner-tspan" font-style="normal">+Developer(name,</tspan><tspan font-weight="normal" class="text-inner-tspan" font-style="normal"> position)</tspan></tspan></text></g></g><g transform="translate(0,12.5)" style="" class="label"><g><rect style="stroke: none" class="background"></rect><text style="" y="-10.1"><tspan dy="1.1em" y="-0.1em" x="0" class="text-outer-tspan"><tspan font-weight="normal" class="text-inner-tspan" font-style="normal">+showDetails()</tspan></tspan></text></g></g></g><g style="" class="divider"><path style="" fill="none" stroke-width="1.3" stroke="#999" d="M-130.60833740234375 -43.5 C-59.71894179704276 -43.5, 11.17045380825823 -43.5, 130.60833740234375 -43.5 M-130.60833740234375 -43.5 C-69.09623373726244 -43.5, -7.584130072181125 -43.5, 130.60833740234375 -43.5"></path></g><g style="" class="divider"><path style="" fill="none" stroke-width="1.3" stroke="#999" d="M-130.60833740234375 21.5 C-65.481071238726 21.5, -0.3538050751082551 21.5, 130.60833740234375 21.5 M-130.60833740234375 21.5 C-52.054728151085015 21.5, 26.49888110017372 21.5, 130.60833740234375 21.5"></path></g></g><g transform="translate(454.10833740234375, 301.5)" id="classId-Manager-72" class="node default"><g class="basic label-container"><path style="" fill="#eee" stroke-width="0" stroke="none" d="M-134.89166259765625 -86.5 L134.89166259765625 -86.5 L134.89166259765625 86.5 L-134.89166259765625 86.5"></path><path style="" fill="none" stroke-width="1.3" stroke="#999" d="M-134.89166259765625 -86.5 C-56.45399189073194 -86.5, 21.983678816192366 -86.5, 134.89166259765625 -86.5 M-134.89166259765625 -86.5 C-72.66393933499211 -86.5, -10.436216072327952 -86.5, 134.89166259765625 -86.5 M134.89166259765625 -86.5 C134.89166259765625 -32.36902066802307, 134.89166259765625 21.761958663953862, 134.89166259765625 86.5 M134.89166259765625 -86.5 C134.89166259765625 -43.755349024411615, 134.89166259765625 -1.0106980488232296, 134.89166259765625 86.5 M134.89166259765625 86.5 C48.28003487714834 86.5, -38.33159284335957 86.5, -134.89166259765625 86.5 M134.89166259765625 86.5 C37.47217821282071 86.5, -59.947306172014834 86.5, -134.89166259765625 86.5 M-134.89166259765625 86.5 C-134.89166259765625 22.906490086152964, -134.89166259765625 -40.68701982769407, -134.89166259765625 -86.5 M-134.89166259765625 86.5 C-134.89166259765625 33.39927467792627, -134.89166259765625 -19.701450644147457, -134.89166259765625 -86.5"></path></g><g transform="translate(0, -66.5)" class="annotation-group text"></g><g transform="translate(-31.233333587646484, -66.5)" class="label-group text"><g transform="translate(0,-9.5)" style="font-weight: bolder" class="label"><g><rect style="stroke: none" class="background"></rect><text style="" y="-10.1"><tspan font-weight="" dy="1.1em" y="-0.1em" x="0" class="text-outer-tspan"><tspan font-weight="" class="text-inner-tspan" font-style="normal">Manager</tspan></tspan></text></g></g></g><g transform="translate(-122.89166259765625, -23.5)" class="members-group text"><g transform="translate(0,-9.5)" style="" class="label"><g><rect style="stroke: none" class="background"></rect><text style="" y="-10.1"><tspan dy="1.1em" y="-0.1em" x="0" class="text-outer-tspan"><tspan font-weight="normal" class="text-inner-tspan" font-style="normal">-String</tspan><tspan font-weight="normal" class="text-inner-tspan" font-style="normal"> name</tspan></tspan></text></g></g><g transform="translate(0,12.5)" style="" class="label"><g><rect style="stroke: none" class="background"></rect><text style="" y="-10.1"><tspan dy="1.1em" y="-0.1em" x="0" class="text-outer-tspan"><tspan font-weight="normal" class="text-inner-tspan" font-style="normal">-String</tspan><tspan font-weight="normal" class="text-inner-tspan" font-style="normal"> department</tspan></tspan></text></g></g></g><g transform="translate(-122.89166259765625, 41.5)" class="methods-group text"><g transform="translate(0,-9.5)" style="" class="label"><g><rect style="stroke: none" class="background"></rect><text style="" y="-10.1"><tspan dy="1.1em" y="-0.1em" x="0" class="text-outer-tspan"><tspan font-weight="normal" class="text-inner-tspan" font-style="normal">+Manager(name,</tspan><tspan font-weight="normal" class="text-inner-tspan" font-style="normal"> department)</tspan></tspan></text></g></g><g transform="translate(0,12.5)" style="" class="label"><g><rect style="stroke: none" class="background"></rect><text style="" y="-10.1"><tspan dy="1.1em" y="-0.1em" x="0" class="text-outer-tspan"><tspan font-weight="normal" class="text-inner-tspan" font-style="normal">+showDetails()</tspan></tspan></text></g></g></g><g style="" class="divider"><path style="" fill="none" stroke-width="1.3" stroke="#999" d="M-134.89166259765625 -43.5 C-79.1699581280956 -43.5, -23.448253658534952 -43.5, 134.89166259765625 -43.5 M-134.89166259765625 -43.5 C-54.63453017796449 -43.5, 25.622602241727265 -43.5, 134.89166259765625 -43.5"></path></g><g style="" class="divider"><path style="" fill="none" stroke-width="1.3" stroke="#999" d="M-134.89166259765625 21.5 C-72.82725646949888 21.5, -10.762850341341505 21.5, 134.89166259765625 21.5 M-134.89166259765625 21.5 C-66.46526962394005 21.5, 1.9611233497761589 21.5, 134.89166259765625 21.5"></path></g></g><g transform="translate(767.1375122070312, 301.5)" id="classId-Team-73" class="node default"><g class="basic label-container"><path style="" fill="#eee" stroke-width="0" stroke="none" d="M-128.13750457763672 -108.5 L128.13750457763672 -108.5 L128.13750457763672 108.5 L-128.13750457763672 108.5"></path><path style="" fill="none" stroke-width="1.3" stroke="#999" d="M-128.13750457763672 -108.5 C-43.62859070779422 -108.5, 40.880323162048285 -108.5, 128.13750457763672 -108.5 M-128.13750457763672 -108.5 C-25.80998804503419 -108.5, 76.51752848756834 -108.5, 128.13750457763672 -108.5 M128.13750457763672 -108.5 C128.13750457763672 -41.24133758118809, 128.13750457763672 26.017324837623818, 128.13750457763672 108.5 M128.13750457763672 -108.5 C128.13750457763672 -56.8398058376267, 128.13750457763672 -5.179611675253398, 128.13750457763672 108.5 M128.13750457763672 108.5 C66.81307516459088 108.5, 5.488645751545036 108.5, -128.13750457763672 108.5 M128.13750457763672 108.5 C29.559072687779505 108.5, -69.01935920207771 108.5, -128.13750457763672 108.5 M-128.13750457763672 108.5 C-128.13750457763672 26.643928735424325, -128.13750457763672 -55.21214252915135, -128.13750457763672 -108.5 M-128.13750457763672 108.5 C-128.13750457763672 50.45952545434348, -128.13750457763672 -7.580949091313045, -128.13750457763672 -108.5"></path></g><g transform="translate(0, -88.5)" class="annotation-group text"></g><g transform="translate(-19.741666793823242, -88.5)" class="label-group text"><g transform="translate(0,-9.5)" style="font-weight: bolder" class="label"><g><rect style="stroke: none" class="background"></rect><text style="" y="-10.1"><tspan font-weight="" dy="1.1em" y="-0.1em" x="0" class="text-outer-tspan"><tspan font-weight="" class="text-inner-tspan" font-style="normal">Team</tspan></tspan></text></g></g></g><g transform="translate(-116.13750457763672, -45.5)" class="members-group text"><g transform="translate(0,-9.5)" style="" class="label"><g><rect style="stroke: none" class="background"></rect><text style="" y="-10.1"><tspan dy="1.1em" y="-0.1em" x="0" class="text-outer-tspan"><tspan font-weight="normal" class="text-inner-tspan" font-style="normal">-String</tspan><tspan font-weight="normal" class="text-inner-tspan" font-style="normal"> teamName</tspan></tspan></text></g></g><g transform="translate(0,12.5)" style="" class="label"><g><rect style="stroke: none" class="background"></rect><text style="" y="-10.1"><tspan dy="1.1em" y="-0.1em" x="0" class="text-outer-tspan"><tspan font-weight="normal" class="text-inner-tspan" font-style="normal">-List</tspan><tspan font-weight="normal" class="text-inner-tspan" font-style="normal"> employees</tspan></tspan></text></g></g></g><g transform="translate(-116.13750457763672, 19.5)" class="methods-group text"><g transform="translate(0,-9.5)" style="" class="label"><g><rect style="stroke: none" class="background"></rect><text style="" y="-10.1"><tspan dy="1.1em" y="-0.1em" x="0" class="text-outer-tspan"><tspan font-weight="normal" class="text-inner-tspan" font-style="normal">+Team(teamName)</tspan></tspan></text></g></g><g transform="translate(0,12.5)" style="" class="label"><g><rect style="stroke: none" class="background"></rect><text style="" y="-10.1"><tspan dy="1.1em" y="-0.1em" x="0" class="text-outer-tspan"><tspan font-weight="normal" class="text-inner-tspan" font-style="normal">+addEmployee(employee)</tspan></tspan></text></g></g><g transform="translate(0,34.5)" style="" class="label"><g><rect style="stroke: none" class="background"></rect><text style="" y="-10.1"><tspan dy="1.1em" y="-0.1em" x="0" class="text-outer-tspan"><tspan font-weight="normal" class="text-inner-tspan" font-style="normal">+removeEmployee(employee)</tspan></tspan></text></g></g><g transform="translate(0,56.5)" style="" class="label"><g><rect style="stroke: none" class="background"></rect><text style="" y="-10.1"><tspan dy="1.1em" y="-0.1em" x="0" class="text-outer-tspan"><tspan font-weight="normal" class="text-inner-tspan" font-style="normal">+showDetails()</tspan></tspan></text></g></g></g><g style="" class="divider"><path style="" fill="none" stroke-width="1.3" stroke="#999" d="M-128.13751220703125 -65.5 C-67.42805803971285 -65.5, -6.718603872394468 -65.5, 128.13751220703125 -65.5 M-128.13751220703125 -65.5 C-67.0880736246409 -65.5, -6.038635042250547 -65.5, 128.13751220703125 -65.5"></path></g><g style="" class="divider"><path style="" fill="none" stroke-width="1.3" stroke="#999" d="M-128.13751220703125 -0.5 C-64.89610887522991 -0.5, -1.6547055434285767 -0.5, 128.13751220703125 -0.5 M-128.13751220703125 -0.5 C-72.60442691007762 -0.5, -17.07134161312399 -0.5, 128.13751220703125 -0.5"></path></g></g></g></g></g></svg>