<svg aria-roledescription="class" role="graphics-document document" viewBox="0 0 682.2249755859375 871" style="max-width: 682.2249755859375px;" class="classDiagram" xmlns="http://www.w3.org/2000/svg" width="100%" id="mermaidSvgId"><style>#mermaidSvgId{font-family:"trebuchet ms",verdana,arial,sans-serif;font-size:16px;fill:#000000;}#mermaidSvgId .error-icon{fill:#552222;}#mermaidSvgId .error-text{fill:#552222;stroke:#552222;}#mermaidSvgId .edge-thickness-normal{stroke-width:1px;}#mermaidSvgId .edge-thickness-thick{stroke-width:3.5px;}#mermaidSvgId .edge-pattern-solid{stroke-dasharray:0;}#mermaidSvgId .edge-thickness-invisible{stroke-width:0;fill:none;}#mermaidSvgId .edge-pattern-dashed{stroke-dasharray:3;}#mermaidSvgId .edge-pattern-dotted{stroke-dasharray:2;}#mermaidSvgId .marker{fill:#666;stroke:#666;}#mermaidSvgId .marker.cross{stroke:#666;}#mermaidSvgId svg{font-family:"trebuchet ms",verdana,arial,sans-serif;font-size:16px;}#mermaidSvgId p{margin:0;}#mermaidSvgId g.classGroup text{fill:#999;stroke:none;font-family:"trebuchet ms",verdana,arial,sans-serif;font-size:10px;}#mermaidSvgId g.classGroup text .title{font-weight:bolder;}#mermaidSvgId .nodeLabel,#mermaidSvgId .edgeLabel{color:#111111;}#mermaidSvgId .edgeLabel .label rect{fill:#eee;}#mermaidSvgId .label text{fill:#111111;}#mermaidSvgId .labelBkg{background:#eee;}#mermaidSvgId .edgeLabel .label span{background:#eee;}#mermaidSvgId .classTitle{font-weight:bolder;}#mermaidSvgId .node rect,#mermaidSvgId .node circle,#mermaidSvgId .node ellipse,#mermaidSvgId .node polygon,#mermaidSvgId .node path{fill:#eee;stroke:#999;stroke-width:1px;}#mermaidSvgId .divider{stroke:#999;stroke-width:1;}#mermaidSvgId g.clickable{cursor:pointer;}#mermaidSvgId g.classGroup rect{fill:#eee;stroke:#999;}#mermaidSvgId g.classGroup line{stroke:#999;stroke-width:1;}#mermaidSvgId .classLabel .box{stroke:none;stroke-width:0;fill:#eee;opacity:0.5;}#mermaidSvgId .classLabel .label{fill:#999;font-size:10px;}#mermaidSvgId .relation{stroke:#666;stroke-width:1;fill:none;}#mermaidSvgId .dashed-line{stroke-dasharray:3;}#mermaidSvgId .dotted-line{stroke-dasharray:1 2;}#mermaidSvgId #compositionStart,#mermaidSvgId .composition{fill:#666!important;stroke:#666!important;stroke-width:1;}#mermaidSvgId #compositionEnd,#mermaidSvgId .composition{fill:#666!important;stroke:#666!important;stroke-width:1;}#mermaidSvgId #dependencyStart,#mermaidSvgId .dependency{fill:#666!important;stroke:#666!important;stroke-width:1;}#mermaidSvgId #dependencyStart,#mermaidSvgId .dependency{fill:#666!important;stroke:#666!important;stroke-width:1;}#mermaidSvgId #extensionStart,#mermaidSvgId .extension{fill:transparent!important;stroke:#666!important;stroke-width:1;}#mermaidSvgId #extensionEnd,#mermaidSvgId .extension{fill:transparent!important;stroke:#666!important;stroke-width:1;}#mermaidSvgId #aggregationStart,#mermaidSvgId .aggregation{fill:transparent!important;stroke:#666!important;stroke-width:1;}#mermaidSvgId #aggregationEnd,#mermaidSvgId .aggregation{fill:transparent!important;stroke:#666!important;stroke-width:1;}#mermaidSvgId #lollipopStart,#mermaidSvgId .lollipop{fill:#eee!important;stroke:#666!important;stroke-width:1;}#mermaidSvgId #lollipopEnd,#mermaidSvgId .lollipop{fill:#eee!important;stroke:#666!important;stroke-width:1;}#mermaidSvgId .edgeTerminals{font-size:11px;line-height:initial;}#mermaidSvgId .classTitleText{text-anchor:middle;font-size:18px;fill:#000000;}#mermaidSvgId :root{--mermaid-font-family:"trebuchet ms",verdana,arial,sans-serif;}</style><g><defs><marker orient="auto" markerHeight="240" markerWidth="190" refY="7" refX="18" class="marker aggregation class" id="mermaidSvgId_class-aggregationStart"><path d="M 18,7 L9,13 L1,7 L9,1 Z"></path></marker></defs><defs><marker orient="auto" markerHeight="28" markerWidth="20" refY="7" refX="1" class="marker aggregation class" id="mermaidSvgId_class-aggregationEnd"><path d="M 18,7 L9,13 L1,7 L9,1 Z"></path></marker></defs><defs><marker orient="auto" markerHeight="240" markerWidth="190" refY="7" refX="18" class="marker extension class" id="mermaidSvgId_class-extensionStart"><path d="M 1,7 L18,13 V 1 Z"></path></marker></defs><defs><marker orient="auto" markerHeight="28" markerWidth="20" refY="7" refX="1" class="marker extension class" id="mermaidSvgId_class-extensionEnd"><path d="M 1,1 V 13 L18,7 Z"></path></marker></defs><defs><marker orient="auto" markerHeight="240" markerWidth="190" refY="7" refX="18" class="marker composition class" id="mermaidSvgId_class-compositionStart"><path d="M 18,7 L9,13 L1,7 L9,1 Z"></path></marker></defs><defs><marker orient="auto" markerHeight="28" markerWidth="20" refY="7" refX="1" class="marker composition class" id="mermaidSvgId_class-compositionEnd"><path d="M 18,7 L9,13 L1,7 L9,1 Z"></path></marker></defs><defs><marker orient="auto" markerHeight="240" markerWidth="190" refY="7" refX="6" class="marker dependency class" id="mermaidSvgId_class-dependencyStart"><path d="M 5,7 L9,13 L1,7 L9,1 Z"></path></marker></defs><defs><marker orient="auto" markerHeight="28" markerWidth="20" refY="7" refX="13" class="marker dependency class" id="mermaidSvgId_class-dependencyEnd"><path d="M 18,7 L9,13 L14,7 L9,1 Z"></path></marker></defs><defs><marker orient="auto" markerHeight="240" markerWidth="190" refY="7" refX="13" class="marker lollipop class" id="mermaidSvgId_class-lollipopStart"><circle r="6" cy="7" cx="7" fill="transparent" stroke="black"></circle></marker></defs><defs><marker orient="auto" markerHeight="240" markerWidth="190" refY="7" refX="1" class="marker lollipop class" id="mermaidSvgId_class-lollipopEnd"><circle r="6" cy="7" cx="7" fill="transparent" stroke="black"></circle></marker></defs><g class="root"><g class="clusters"></g><g class="edgePaths"><path marker-start="url(#mermaidSvgId_class-extensionStart)" style=";" class="edge-thickness-normal edge-pattern-solid relation" id="id_Subject_WeatherStation_1" d="M352.327,205L352.327,206.167C352.327,207.333,352.327,209.667,352.327,215C352.327,220.333,352.327,228.667,352.327,232.833L352.327,237"></path><path marker-start="url(#mermaidSvgId_class-extensionStart)" style=";" class="edge-thickness-normal edge-pattern-solid relation" id="id_Observer_PhoneDisplay_2" d="M205.672,670.261L200.272,673.051C194.872,675.841,184.071,681.42,178.671,688.377C173.271,695.333,173.271,703.667,173.271,707.833L173.271,712"></path><path marker-start="url(#mermaidSvgId_class-extensionStart)" style=";" class="edge-thickness-normal edge-pattern-solid relation" id="id_Observer_WindowDisplay_3" d="M498.982,670.261L504.382,673.051C509.782,675.841,520.583,681.42,525.983,691.294C531.383,701.167,531.383,715.333,531.383,722.417L531.383,729.5"></path><path marker-end="url(#mermaidSvgId_class-dependencyEnd)" style=";" class="edge-thickness-normal edge-pattern-solid relation" id="id_WeatherStation_Observer_4" d="M352.327,454L352.327,460.083C352.327,466.167,352.327,478.333,352.327,489.5C352.327,500.667,352.327,510.833,352.327,515.917L352.327,521"></path></g><g class="edgeLabels"><g><rect style="stroke: none" class="background"></rect></g><g><rect style="stroke: none" class="background"></rect></g><g><rect style="stroke: none" class="background"></rect></g><g class="edgeLabel"><g transform="translate(0, 0)" class="label"><text y="-10.1"><tspan dy="1.1em" y="-0.1em" x="0" class="text-outer-tspan"></tspan></text></g></g><g class="edgeLabel"><g transform="translate(0, 0)" class="label"><text y="-10.1"><tspan dy="1.1em" y="-0.1em" x="0" class="text-outer-tspan"></tspan></text></g></g><g class="edgeLabel"><g transform="translate(0, 0)" class="label"><text y="-10.1"><tspan dy="1.1em" y="-0.1em" x="0" class="text-outer-tspan"></tspan></text></g></g><g transform="translate(352.3270721435547, 490.5)" class="edgeLabel"><g transform="translate(-33.041664123535156, -11.5)" class="label"><g><rect height="23" width="66.08333206176758" y="-0.9999996423721313" x="-2" style=";display: inline-block" class="background"></rect><text style=";display: inline-block" y="-10.1"><tspan dy="1.1em" y="-0.1em" x="0" class="text-outer-tspan"><tspan font-weight="normal" class="text-inner-tspan" font-style="normal">manages</tspan></tspan></text></g></g></g><g transform="translate(362.32707107177737, 504.4999990813337)" class="edgeTerminals"><g transform="translate(-5, -6)" class="inner"></g><text style=";display: inline-block"><tspan class="row" x="0" dy="1em" xml:space="preserve">*</tspan></text></g></g><g class="nodes"><g transform="translate(352.3270721435547, 594.5)" id="classId-Observer-386" class="node default"><g class="basic label-container"><path style="" fill="#eee" stroke-width="0" stroke="none" d="M-135.37083435058594 -67.5 L135.37083435058594 -67.5 L135.37083435058594 67.5 L-135.37083435058594 67.5"></path><path style="" fill="none" stroke-width="1.3" stroke="#999" d="M-135.37083435058594 -67.5 C-57.599224498585286 -67.5, 20.172385353415365 -67.5, 135.37083435058594 -67.5 M-135.37083435058594 -67.5 C-58.85110487698853 -67.5, 17.66862459660888 -67.5, 135.37083435058594 -67.5 M135.37083435058594 -67.5 C135.37083435058594 -16.500104355491224, 135.37083435058594 34.49979128901755, 135.37083435058594 67.5 M135.37083435058594 -67.5 C135.37083435058594 -34.285124180704216, 135.37083435058594 -1.0702483614084315, 135.37083435058594 67.5 M135.37083435058594 67.5 C41.633774198117464 67.5, -52.10328595435101 67.5, -135.37083435058594 67.5 M135.37083435058594 67.5 C51.59634403217761 67.5, -32.178146286230714 67.5, -135.37083435058594 67.5 M-135.37083435058594 67.5 C-135.37083435058594 25.937907778969596, -135.37083435058594 -15.624184442060809, -135.37083435058594 -67.5 M-135.37083435058594 67.5 C-135.37083435058594 15.258469533895564, -135.37083435058594 -36.98306093220887, -135.37083435058594 -67.5"></path></g><g transform="translate(-41.17499923706055, -47.5)" class="annotation-group text"><g transform="translate(0,-9.5)" style="" class="label"><g><rect style="stroke: none" class="background"></rect><text style="" y="-10.1"><tspan dy="1.1em" y="-0.1em" x="0" class="text-outer-tspan"><tspan font-weight="normal" class="text-inner-tspan" font-style="normal">«interface»</tspan></tspan></text></g></g></g><g transform="translate(-33.96666717529297, -28.5)" class="label-group text"><g transform="translate(0,-9.5)" style="font-weight: bolder" class="label"><g><rect style="stroke: none" class="background"></rect><text style="" y="-10.1"><tspan font-weight="" dy="1.1em" y="-0.1em" x="0" class="text-outer-tspan"><tspan font-weight="" class="text-inner-tspan" font-style="normal">Observer</tspan></tspan></text></g></g></g><g transform="translate(-123.37083435058594, 14.5)" class="members-group text"></g><g transform="translate(-123.37083435058594, 44.5)" class="methods-group text"><g transform="translate(0,-9.5)" style="" class="label"><g><rect style="stroke: none" class="background"></rect><text style="" y="-10.1"><tspan dy="1.1em" y="-0.1em" x="0" class="text-outer-tspan"><tspan font-weight="normal" class="text-inner-tspan" font-style="normal">+update(temperature:</tspan><tspan font-weight="normal" class="text-inner-tspan" font-style="normal"> float)</tspan></tspan></text></g></g></g><g style="" class="divider"><path style="" fill="none" stroke-width="1.3" stroke="#999" d="M-135.37083435058594 -5.5 C-52.238229661704196 -5.5, 30.894375027177546 -5.5, 135.37083435058594 -5.5 M-135.37083435058594 -5.5 C-81.09562702287722 -5.5, -26.82041969516851 -5.5, 135.37083435058594 -5.5"></path></g><g style="" class="divider"><path style="" fill="none" stroke-width="1.3" stroke="#999" d="M-135.37083435058594 18.5 C-37.07694204288552 18.5, 61.2169502648149 18.5, 135.37083435058594 18.5 M-135.37083435058594 18.5 C-62.150402130618446 18.5, 11.070030089349046 18.5, 135.37083435058594 18.5"></path></g></g><g transform="translate(352.3270721435547, 97.5)" id="classId-Subject-387" class="node default"><g class="basic label-container"><path style="" fill="#eee" stroke-width="0" stroke="none" d="M-169.47915649414062 -89.5 L169.47915649414062 -89.5 L169.47915649414062 89.5 L-169.47915649414062 89.5"></path><path style="" fill="none" stroke-width="1.3" stroke="#999" d="M-169.47915649414062 -89.5 C-74.87759796398005 -89.5, 19.723960566180523 -89.5, 169.47915649414062 -89.5 M-169.47915649414062 -89.5 C-40.093803543460524 -89.5, 89.29154940721958 -89.5, 169.47915649414062 -89.5 M169.47915649414062 -89.5 C169.47915649414062 -25.097922365029078, 169.47915649414062 39.304155269941845, 169.47915649414062 89.5 M169.47915649414062 -89.5 C169.47915649414062 -46.65273022801181, 169.47915649414062 -3.8054604560236243, 169.47915649414062 89.5 M169.47915649414062 89.5 C56.762675984192825 89.5, -55.953804525754975 89.5, -169.47915649414062 89.5 M169.47915649414062 89.5 C99.69043524551113 89.5, 29.901713996881625 89.5, -169.47915649414062 89.5 M-169.47915649414062 89.5 C-169.47915649414062 29.94362530627911, -169.47915649414062 -29.61274938744178, -169.47915649414062 -89.5 M-169.47915649414062 89.5 C-169.47915649414062 49.39001468978265, -169.47915649414062 9.280029379565306, -169.47915649414062 -89.5"></path></g><g transform="translate(-41.17499923706055, -69.5)" class="annotation-group text"><g transform="translate(0,-9.5)" style="" class="label"><g><rect style="stroke: none" class="background"></rect><text style="" y="-10.1"><tspan dy="1.1em" y="-0.1em" x="0" class="text-outer-tspan"><tspan font-weight="normal" class="text-inner-tspan" font-style="normal">«interface»</tspan></tspan></text></g></g></g><g transform="translate(-28.266666412353516, -50.5)" class="label-group text"><g transform="translate(0,-9.5)" style="font-weight: bolder" class="label"><g><rect style="stroke: none" class="background"></rect><text style="" y="-10.1"><tspan font-weight="" dy="1.1em" y="-0.1em" x="0" class="text-outer-tspan"><tspan font-weight="" class="text-inner-tspan" font-style="normal">Subject</tspan></tspan></text></g></g></g><g transform="translate(-157.47915649414062, -7.5)" class="members-group text"></g><g transform="translate(-157.47915649414062, 22.5)" class="methods-group text"><g transform="translate(0,-9.5)" style="" class="label"><g><rect style="stroke: none" class="background"></rect><text style="" y="-10.1"><tspan dy="1.1em" y="-0.1em" x="0" class="text-outer-tspan"><tspan font-weight="normal" class="text-inner-tspan" font-style="normal">+addObserver(observer:</tspan><tspan font-weight="normal" class="text-inner-tspan" font-style="normal"> Observer)</tspan></tspan></text></g></g><g transform="translate(0,12.5)" style="" class="label"><g><rect style="stroke: none" class="background"></rect><text style="" y="-10.1"><tspan dy="1.1em" y="-0.1em" x="0" class="text-outer-tspan"><tspan font-weight="normal" class="text-inner-tspan" font-style="normal">+removeObserver(observer:</tspan><tspan font-weight="normal" class="text-inner-tspan" font-style="normal"> Observer)</tspan></tspan></text></g></g><g transform="translate(0,34.5)" style="" class="label"><g><rect style="stroke: none" class="background"></rect><text style="" y="-10.1"><tspan dy="1.1em" y="-0.1em" x="0" class="text-outer-tspan"><tspan font-weight="normal" class="text-inner-tspan" font-style="normal">+notifyObservers()</tspan></tspan></text></g></g></g><g style="" class="divider"><path style="" fill="none" stroke-width="1.3" stroke="#999" d="M-169.47915649414062 -27.5 C-93.54172650170074 -27.5, -17.60429650926085 -27.5, 169.47915649414062 -27.5 M-169.47915649414062 -27.5 C-36.673945202170955 -27.5, 96.13126608979871 -27.5, 169.47915649414062 -27.5"></path></g><g style="" class="divider"><path style="" fill="none" stroke-width="1.3" stroke="#999" d="M-169.47915649414062 -3.5 C-58.24721794982885 -3.5, 52.98472059448292 -3.5, 169.47915649414062 -3.5 M-169.47915649414062 -3.5 C-52.600357255771286 -3.5, 64.27844198259805 -3.5, 169.47915649414062 -3.5"></path></g></g><g transform="translate(173.2708282470703, 787.5)" id="classId-PhoneDisplay-388" class="node default"><g class="basic label-container"><path style="" fill="#eee" stroke-width="0" stroke="none" d="M-165.2708282470703 -75.5 L165.2708282470703 -75.5 L165.2708282470703 75.5 L-165.2708282470703 75.5"></path><path style="" fill="none" stroke-width="1.3" stroke="#999" d="M-165.2708282470703 -75.5 C-93.1120458359306 -75.5, -20.95326342479089 -75.5, 165.2708282470703 -75.5 M-165.2708282470703 -75.5 C-60.8517835755284 -75.5, 43.56726109601351 -75.5, 165.2708282470703 -75.5 M165.2708282470703 -75.5 C165.2708282470703 -22.675716539359257, 165.2708282470703 30.148566921281486, 165.2708282470703 75.5 M165.2708282470703 -75.5 C165.2708282470703 -35.3150971504207, 165.2708282470703 4.869805699158604, 165.2708282470703 75.5 M165.2708282470703 75.5 C97.48437496524447 75.5, 29.697921683418627 75.5, -165.2708282470703 75.5 M165.2708282470703 75.5 C50.28048359154239 75.5, -64.70986106398553 75.5, -165.2708282470703 75.5 M-165.2708282470703 75.5 C-165.2708282470703 40.611753400395806, -165.2708282470703 5.723506800791611, -165.2708282470703 -75.5 M-165.2708282470703 75.5 C-165.2708282470703 33.889425665779704, -165.2708282470703 -7.721148668440591, -165.2708282470703 -75.5"></path></g><g transform="translate(0, -55.5)" class="annotation-group text"></g><g transform="translate(-49.79166793823242, -55.5)" class="label-group text"><g transform="translate(0,-9.5)" style="font-weight: bolder" class="label"><g><rect style="stroke: none" class="background"></rect><text style="" y="-10.1"><tspan font-weight="" dy="1.1em" y="-0.1em" x="0" class="text-outer-tspan"><tspan font-weight="" class="text-inner-tspan" font-style="normal">PhoneDisplay</tspan></tspan></text></g></g></g><g transform="translate(-153.2708282470703, -12.5)" class="members-group text"><g transform="translate(0,-9.5)" style="" class="label"><g><rect style="stroke: none" class="background"></rect><text style="" y="-10.1"><tspan dy="1.1em" y="-0.1em" x="0" class="text-outer-tspan"><tspan font-weight="normal" class="text-inner-tspan" font-style="normal">-String</tspan><tspan font-weight="normal" class="text-inner-tspan" font-style="normal"> displayName</tspan></tspan></text></g></g></g><g transform="translate(-153.2708282470703, 30.5)" class="methods-group text"><g transform="translate(0,-9.5)" style="" class="label"><g><rect style="stroke: none" class="background"></rect><text style="" y="-10.1"><tspan dy="1.1em" y="-0.1em" x="0" class="text-outer-tspan"><tspan font-weight="normal" class="text-inner-tspan" font-style="normal">+PhoneDisplay(displayName:</tspan><tspan font-weight="normal" class="text-inner-tspan" font-style="normal"> String)</tspan></tspan></text></g></g><g transform="translate(0,12.5)" style="" class="label"><g><rect style="stroke: none" class="background"></rect><text style="" y="-10.1"><tspan dy="1.1em" y="-0.1em" x="0" class="text-outer-tspan"><tspan font-weight="normal" class="text-inner-tspan" font-style="normal">+update(temperature:</tspan><tspan font-weight="normal" class="text-inner-tspan" font-style="normal"> float)</tspan></tspan></text></g></g></g><g style="" class="divider"><path style="" fill="none" stroke-width="1.3" stroke="#999" d="M-165.2708282470703 -32.5 C-34.927415828905026 -32.5, 95.41599658926026 -32.5, 165.2708282470703 -32.5 M-165.2708282470703 -32.5 C-37.75804955052027 -32.5, 89.75472914602977 -32.5, 165.2708282470703 -32.5"></path></g><g style="" class="divider"><path style="" fill="none" stroke-width="1.3" stroke="#999" d="M-165.2708282470703 10.5 C-75.10211910178887 10.5, 15.066590043492567 10.5, 165.2708282470703 10.5 M-165.2708282470703 10.5 C-54.99791639260752 10.5, 55.27499546185527 10.5, 165.2708282470703 10.5"></path></g></g><g transform="translate(531.3833160400391, 787.5)" id="classId-WindowDisplay-389" class="node default"><g class="basic label-container"><path style="" fill="#eee" stroke-width="0" stroke="none" d="M-142.84165954589844 -58 L142.84165954589844 -58 L142.84165954589844 58 L-142.84165954589844 58"></path><path style="" fill="none" stroke-width="1.3" stroke="#999" d="M-142.84165954589844 -58 C-29.80049084477099 -58, 83.24067785635646 -58, 142.84165954589844 -58 M-142.84165954589844 -58 C-76.66845044108626 -58, -10.495241336274091 -58, 142.84165954589844 -58 M142.84165954589844 -58 C142.84165954589844 -30.968467529392203, 142.84165954589844 -3.9369350587844067, 142.84165954589844 58 M142.84165954589844 -58 C142.84165954589844 -12.44532103694845, 142.84165954589844 33.1093579261031, 142.84165954589844 58 M142.84165954589844 58 C85.55160369274968 58, 28.261547839600922 58, -142.84165954589844 58 M142.84165954589844 58 C44.13286816703709 58, -54.57592321182426 58, -142.84165954589844 58 M-142.84165954589844 58 C-142.84165954589844 20.957776073007814, -142.84165954589844 -16.084447853984372, -142.84165954589844 -58 M-142.84165954589844 58 C-142.84165954589844 25.117318635523745, -142.84165954589844 -7.7653627289525105, -142.84165954589844 -58"></path></g><g transform="translate(0, -38)" class="annotation-group text"></g><g transform="translate(-56.11666488647461, -38)" class="label-group text"><g transform="translate(0,-9.5)" style="font-weight: bolder" class="label"><g><rect style="stroke: none" class="background"></rect><text style="" y="-10.1"><tspan font-weight="" dy="1.1em" y="-0.1em" x="0" class="text-outer-tspan"><tspan font-weight="" class="text-inner-tspan" font-style="normal">WindowDisplay</tspan></tspan></text></g></g></g><g transform="translate(-130.84165954589844, 5)" class="members-group text"></g><g transform="translate(-130.84165954589844, 35)" class="methods-group text"><g transform="translate(0,-9.5)" style="" class="label"><g><rect style="stroke: none" class="background"></rect><text style="" y="-10.1"><tspan dy="1.1em" y="-0.1em" x="0" class="text-outer-tspan"><tspan font-weight="normal" class="text-inner-tspan" font-style="normal">+update(temperature:</tspan><tspan font-weight="normal" class="text-inner-tspan" font-style="normal"> float)</tspan></tspan></text></g></g></g><g style="" class="divider"><path style="" fill="none" stroke-width="1.3" stroke="#999" d="M-142.84165954589844 -15 C-48.23257952398828 -15, 46.37650049792188 -15, 142.84165954589844 -15 M-142.84165954589844 -15 C-48.62678172885485 -15, 45.588096088188735 -15, 142.84165954589844 -15"></path></g><g style="" class="divider"><path style="" fill="none" stroke-width="1.3" stroke="#999" d="M-142.84165954589844 9 C-84.47541860577101 9, -26.1091776656436 9, 142.84165954589844 9 M-142.84165954589844 9 C-52.93693382298417 9, 36.96779189993009 9, 142.84165954589844 9"></path></g></g><g transform="translate(352.3270721435547, 345.5)" id="classId-WeatherStation-390" class="node default"><g class="basic label-container"><path style="" fill="#eee" stroke-width="0" stroke="none" d="M-177.91665649414062 -108.5 L177.91665649414062 -108.5 L177.91665649414062 108.5 L-177.91665649414062 108.5"></path><path style="" fill="none" stroke-width="1.3" stroke="#999" d="M-177.91665649414062 -108.5 C-59.52602467323527 -108.5, 58.864607147670085 -108.5, 177.91665649414062 -108.5 M-177.91665649414062 -108.5 C-86.89097838428246 -108.5, 4.1346997255757 -108.5, 177.91665649414062 -108.5 M177.91665649414062 -108.5 C177.91665649414062 -54.94387627288933, 177.91665649414062 -1.3877525457786533, 177.91665649414062 108.5 M177.91665649414062 -108.5 C177.91665649414062 -55.47186425028476, 177.91665649414062 -2.44372850056952, 177.91665649414062 108.5 M177.91665649414062 108.5 C35.837606179753976 108.5, -106.24144413463267 108.5, -177.91665649414062 108.5 M177.91665649414062 108.5 C94.93344442158406 108.5, 11.950232349027488 108.5, -177.91665649414062 108.5 M-177.91665649414062 108.5 C-177.91665649414062 39.00659545194614, -177.91665649414062 -30.48680909610772, -177.91665649414062 -108.5 M-177.91665649414062 108.5 C-177.91665649414062 63.43460225676016, -177.91665649414062 18.369204513520316, -177.91665649414062 -108.5"></path></g><g transform="translate(0, -88.5)" class="annotation-group text"></g><g transform="translate(-58.04999923706055, -88.5)" class="label-group text"><g transform="translate(0,-9.5)" style="font-weight: bolder" class="label"><g><rect style="stroke: none" class="background"></rect><text style="" y="-10.1"><tspan font-weight="" dy="1.1em" y="-0.1em" x="0" class="text-outer-tspan"><tspan font-weight="" class="text-inner-tspan" font-style="normal">WeatherStation</tspan></tspan></text></g></g></g><g transform="translate(-165.91665649414062, -45.5)" class="members-group text"><g transform="translate(0,-9.5)" style="" class="label"><g><rect style="stroke: none" class="background"></rect><text style="" y="-10.1"><tspan dy="1.1em" y="-0.1em" x="0" class="text-outer-tspan"><tspan font-weight="normal" class="text-inner-tspan" font-style="normal">-List</tspan><tspan font-weight="normal" class="text-inner-tspan" font-style="normal"> observers</tspan></tspan></text></g></g><g transform="translate(0,12.5)" style="" class="label"><g><rect style="stroke: none" class="background"></rect><text style="" y="-10.1"><tspan dy="1.1em" y="-0.1em" x="0" class="text-outer-tspan"><tspan font-weight="normal" class="text-inner-tspan" font-style="normal">-float</tspan><tspan font-weight="normal" class="text-inner-tspan" font-style="normal"> temperature</tspan></tspan></text></g></g></g><g transform="translate(-165.91665649414062, 19.5)" class="methods-group text"><g transform="translate(0,-9.5)" style="" class="label"><g><rect style="stroke: none" class="background"></rect><text style="" y="-10.1"><tspan dy="1.1em" y="-0.1em" x="0" class="text-outer-tspan"><tspan font-weight="normal" class="text-inner-tspan" font-style="normal">+addObserver(observer:</tspan><tspan font-weight="normal" class="text-inner-tspan" font-style="normal"> Observer)</tspan></tspan></text></g></g><g transform="translate(0,12.5)" style="" class="label"><g><rect style="stroke: none" class="background"></rect><text style="" y="-10.1"><tspan dy="1.1em" y="-0.1em" x="0" class="text-outer-tspan"><tspan font-weight="normal" class="text-inner-tspan" font-style="normal">+removeObserver(observer:</tspan><tspan font-weight="normal" class="text-inner-tspan" font-style="normal"> Observer)</tspan></tspan></text></g></g><g transform="translate(0,34.5)" style="" class="label"><g><rect style="stroke: none" class="background"></rect><text style="" y="-10.1"><tspan dy="1.1em" y="-0.1em" x="0" class="text-outer-tspan"><tspan font-weight="normal" class="text-inner-tspan" font-style="normal">+notifyObservers()</tspan></tspan></text></g></g><g transform="translate(0,56.5)" style="" class="label"><g><rect style="stroke: none" class="background"></rect><text style="" y="-10.1"><tspan dy="1.1em" y="-0.1em" x="0" class="text-outer-tspan"><tspan font-weight="normal" class="text-inner-tspan" font-style="normal">+setTemperature(temperature:</tspan><tspan font-weight="normal" class="text-inner-tspan" font-style="normal"> float)</tspan></tspan></text></g></g></g><g style="" class="divider"><path style="" fill="none" stroke-width="1.3" stroke="#999" d="M-177.91665649414062 -65.5 C-92.84599382298556 -65.5, -7.7753311518305 -65.5, 177.91665649414062 -65.5 M-177.91665649414062 -65.5 C-82.89391174517462 -65.5, 12.128833003791385 -65.5, 177.91665649414062 -65.5"></path></g><g style="" class="divider"><path style="" fill="none" stroke-width="1.3" stroke="#999" d="M-177.91665649414062 -0.5 C-86.89749675944894 -0.5, 4.121662975242742 -0.5, 177.91665649414062 -0.5 M-177.91665649414062 -0.5 C-92.22882052552727 -0.5, -6.540984556913912 -0.5, 177.91665649414062 -0.5"></path></g></g></g></g></g></svg>