<svg aria-roledescription="class" role="graphics-document document" viewBox="0 0 1325.89990234375 397" style="max-width: 1325.89990234375px;" class="classDiagram" xmlns="http://www.w3.org/2000/svg" width="100%" id="mermaidSvgId"><style>#mermaidSvgId{font-family:"trebuchet ms",verdana,arial,sans-serif;font-size:16px;fill:#000000;}#mermaidSvgId .error-icon{fill:#552222;}#mermaidSvgId .error-text{fill:#552222;stroke:#552222;}#mermaidSvgId .edge-thickness-normal{stroke-width:1px;}#mermaidSvgId .edge-thickness-thick{stroke-width:3.5px;}#mermaidSvgId .edge-pattern-solid{stroke-dasharray:0;}#mermaidSvgId .edge-thickness-invisible{stroke-width:0;fill:none;}#mermaidSvgId .edge-pattern-dashed{stroke-dasharray:3;}#mermaidSvgId .edge-pattern-dotted{stroke-dasharray:2;}#mermaidSvgId .marker{fill:#666;stroke:#666;}#mermaidSvgId .marker.cross{stroke:#666;}#mermaidSvgId svg{font-family:"trebuchet ms",verdana,arial,sans-serif;font-size:16px;}#mermaidSvgId p{margin:0;}#mermaidSvgId g.classGroup text{fill:#999;stroke:none;font-family:"trebuchet ms",verdana,arial,sans-serif;font-size:10px;}#mermaidSvgId g.classGroup text .title{font-weight:bolder;}#mermaidSvgId .nodeLabel,#mermaidSvgId .edgeLabel{color:#111111;}#mermaidSvgId .edgeLabel .label rect{fill:#eee;}#mermaidSvgId .label text{fill:#111111;}#mermaidSvgId .labelBkg{background:#eee;}#mermaidSvgId .edgeLabel .label span{background:#eee;}#mermaidSvgId .classTitle{font-weight:bolder;}#mermaidSvgId .node rect,#mermaidSvgId .node circle,#mermaidSvgId .node ellipse,#mermaidSvgId .node polygon,#mermaidSvgId .node path{fill:#eee;stroke:#999;stroke-width:1px;}#mermaidSvgId .divider{stroke:#999;stroke-width:1;}#mermaidSvgId g.clickable{cursor:pointer;}#mermaidSvgId g.classGroup rect{fill:#eee;stroke:#999;}#mermaidSvgId g.classGroup line{stroke:#999;stroke-width:1;}#mermaidSvgId .classLabel .box{stroke:none;stroke-width:0;fill:#eee;opacity:0.5;}#mermaidSvgId .classLabel .label{fill:#999;font-size:10px;}#mermaidSvgId .relation{stroke:#666;stroke-width:1;fill:none;}#mermaidSvgId .dashed-line{stroke-dasharray:3;}#mermaidSvgId .dotted-line{stroke-dasharray:1 2;}#mermaidSvgId #compositionStart,#mermaidSvgId .composition{fill:#666!important;stroke:#666!important;stroke-width:1;}#mermaidSvgId #compositionEnd,#mermaidSvgId .composition{fill:#666!important;stroke:#666!important;stroke-width:1;}#mermaidSvgId #dependencyStart,#mermaidSvgId .dependency{fill:#666!important;stroke:#666!important;stroke-width:1;}#mermaidSvgId #dependencyStart,#mermaidSvgId .dependency{fill:#666!important;stroke:#666!important;stroke-width:1;}#mermaidSvgId #extensionStart,#mermaidSvgId .extension{fill:transparent!important;stroke:#666!important;stroke-width:1;}#mermaidSvgId #extensionEnd,#mermaidSvgId .extension{fill:transparent!important;stroke:#666!important;stroke-width:1;}#mermaidSvgId #aggregationStart,#mermaidSvgId .aggregation{fill:transparent!important;stroke:#666!important;stroke-width:1;}#mermaidSvgId #aggregationEnd,#mermaidSvgId .aggregation{fill:transparent!important;stroke:#666!important;stroke-width:1;}#mermaidSvgId #lollipopStart,#mermaidSvgId .lollipop{fill:#eee!important;stroke:#666!important;stroke-width:1;}#mermaidSvgId #lollipopEnd,#mermaidSvgId .lollipop{fill:#eee!important;stroke:#666!important;stroke-width:1;}#mermaidSvgId .edgeTerminals{font-size:11px;line-height:initial;}#mermaidSvgId .classTitleText{text-anchor:middle;font-size:18px;fill:#000000;}#mermaidSvgId :root{--mermaid-font-family:"trebuchet ms",verdana,arial,sans-serif;}</style><g><defs><marker orient="auto" markerHeight="240" markerWidth="190" refY="7" refX="18" class="marker aggregation class" id="mermaidSvgId_class-aggregationStart"><path d="M 18,7 L9,13 L1,7 L9,1 Z"></path></marker></defs><defs><marker orient="auto" markerHeight="28" markerWidth="20" refY="7" refX="1" class="marker aggregation class" id="mermaidSvgId_class-aggregationEnd"><path d="M 18,7 L9,13 L1,7 L9,1 Z"></path></marker></defs><defs><marker orient="auto" markerHeight="240" markerWidth="190" refY="7" refX="18" class="marker extension class" id="mermaidSvgId_class-extensionStart"><path d="M 1,7 L18,13 V 1 Z"></path></marker></defs><defs><marker orient="auto" markerHeight="28" markerWidth="20" refY="7" refX="1" class="marker extension class" id="mermaidSvgId_class-extensionEnd"><path d="M 1,1 V 13 L18,7 Z"></path></marker></defs><defs><marker orient="auto" markerHeight="240" markerWidth="190" refY="7" refX="18" class="marker composition class" id="mermaidSvgId_class-compositionStart"><path d="M 18,7 L9,13 L1,7 L9,1 Z"></path></marker></defs><defs><marker orient="auto" markerHeight="28" markerWidth="20" refY="7" refX="1" class="marker composition class" id="mermaidSvgId_class-compositionEnd"><path d="M 18,7 L9,13 L1,7 L9,1 Z"></path></marker></defs><defs><marker orient="auto" markerHeight="240" markerWidth="190" refY="7" refX="6" class="marker dependency class" id="mermaidSvgId_class-dependencyStart"><path d="M 5,7 L9,13 L1,7 L9,1 Z"></path></marker></defs><defs><marker orient="auto" markerHeight="28" markerWidth="20" refY="7" refX="13" class="marker dependency class" id="mermaidSvgId_class-dependencyEnd"><path d="M 18,7 L9,13 L14,7 L9,1 Z"></path></marker></defs><defs><marker orient="auto" markerHeight="240" markerWidth="190" refY="7" refX="13" class="marker lollipop class" id="mermaidSvgId_class-lollipopStart"><circle r="6" cy="7" cx="7" fill="transparent" stroke="black"></circle></marker></defs><defs><marker orient="auto" markerHeight="240" markerWidth="190" refY="7" refX="1" class="marker lollipop class" id="mermaidSvgId_class-lollipopEnd"><circle r="6" cy="7" cx="7" fill="transparent" stroke="black"></circle></marker></defs><g class="root"><g class="clusters"></g><g class="edgePaths"><path marker-end="url(#mermaidSvgId_class-dependencyEnd)" style=";" class="edge-thickness-normal edge-pattern-solid relation" id="id_ShoppingCart_PaymentStrategy_1" d="M214.337,181L214.337,187.083C214.337,193.167,214.337,205.333,262.98,223.875C311.622,242.416,408.907,267.332,457.549,279.79L506.192,292.248"></path><path marker-end="url(#mermaidSvgId_class-extensionEnd)" style=";" class="edge-thickness-normal edge-pattern-dashed relation" id="id_PayPalPayment_PaymentStrategy_2" d="M620.404,170L620.404,177.917C620.404,185.833,620.404,201.667,620.404,212.667C620.404,223.667,620.404,229.833,620.404,232.917L620.404,236"></path><path marker-end="url(#mermaidSvgId_class-extensionEnd)" style=";" class="edge-thickness-normal edge-pattern-dashed relation" id="id_CreditCardPayment_PaymentStrategy_3" d="M1069.017,181L1069.017,187.083C1069.017,193.167,1069.017,205.333,1015.237,223.884C961.457,242.435,853.898,267.37,800.119,279.838L746.339,292.305"></path></g><g class="edgeLabels"><g><rect style="stroke: none" class="background"></rect></g><g><rect style="stroke: none" class="background"></rect></g><g transform="translate(214.33749389648438, 217.5)" class="edgeLabel"><g transform="translate(-17.225000381469727, -11.5)" class="label"><g><rect height="23" width="34.45000076293945" y="-0.9999996423721313" x="-2" style=";display: inline-block" class="background"></rect><text style=";display: inline-block" y="-10.1"><tspan dy="1.1em" y="-0.1em" x="0" class="text-outer-tspan"><tspan font-weight="normal" class="text-inner-tspan" font-style="normal">uses</tspan></tspan></text></g></g></g><g class="edgeLabel"><g transform="translate(0, 0)" class="label"><text y="-10.1"><tspan dy="1.1em" y="-0.1em" x="0" class="text-outer-tspan"></tspan></text></g></g><g class="edgeLabel"><g transform="translate(0, 0)" class="label"><text y="-10.1"><tspan dy="1.1em" y="-0.1em" x="0" class="text-outer-tspan"></tspan></text></g></g></g><g class="nodes"><g transform="translate(620.4041442871094, 321.5)" id="classId-PaymentStrategy-687" class="node default"><g class="basic label-container"><path style="" fill="#eee" stroke-width="0" stroke="none" d="M-108.39999389648438 -67.5 L108.39999389648438 -67.5 L108.39999389648438 67.5 L-108.39999389648438 67.5"></path><path style="" fill="none" stroke-width="1.3" stroke="#999" d="M-108.39999389648438 -67.5 C-54.89112366380954 -67.5, -1.3822534311347 -67.5, 108.39999389648438 -67.5 M-108.39999389648438 -67.5 C-57.45118636154804 -67.5, -6.502378826611704 -67.5, 108.39999389648438 -67.5 M108.39999389648438 -67.5 C108.39999389648438 -36.21624013438807, 108.39999389648438 -4.932480268776139, 108.39999389648438 67.5 M108.39999389648438 -67.5 C108.39999389648438 -33.86091643047633, 108.39999389648438 -0.22183286095265942, 108.39999389648438 67.5 M108.39999389648438 67.5 C39.63052075304118 67.5, -29.13895239040201 67.5, -108.39999389648438 67.5 M108.39999389648438 67.5 C29.04852653448539 67.5, -50.302940827513595 67.5, -108.39999389648438 67.5 M-108.39999389648438 67.5 C-108.39999389648438 31.279535768923367, -108.39999389648438 -4.940928462153266, -108.39999389648438 -67.5 M-108.39999389648438 67.5 C-108.39999389648438 19.692689110467313, -108.39999389648438 -28.114621779065374, -108.39999389648438 -67.5"></path></g><g transform="translate(-41.17499923706055, -47.5)" class="annotation-group text"><g transform="translate(0,-9.5)" style="" class="label"><g><rect style="stroke: none" class="background"></rect><text style="" y="-10.1"><tspan dy="1.1em" y="-0.1em" x="0" class="text-outer-tspan"><tspan font-weight="normal" class="text-inner-tspan" font-style="normal">«interface»</tspan></tspan></text></g></g></g><g transform="translate(-62.96666717529297, -28.5)" class="label-group text"><g transform="translate(0,-9.5)" style="font-weight: bolder" class="label"><g><rect style="stroke: none" class="background"></rect><text style="" y="-10.1"><tspan font-weight="" dy="1.1em" y="-0.1em" x="0" class="text-outer-tspan"><tspan font-weight="" class="text-inner-tspan" font-style="normal">PaymentStrategy</tspan></tspan></text></g></g></g><g transform="translate(-96.39999389648438, 14.5)" class="members-group text"></g><g transform="translate(-96.39999389648438, 44.5)" class="methods-group text"><g transform="translate(0,-9.5)" style="" class="label"><g><rect style="stroke: none" class="background"></rect><text style="" y="-10.1"><tspan dy="1.1em" y="-0.1em" x="0" class="text-outer-tspan"><tspan font-weight="normal" class="text-inner-tspan" font-style="normal">+pay(amount:</tspan><tspan font-weight="normal" class="text-inner-tspan" font-style="normal"> int)</tspan></tspan></text></g></g></g><g style="" class="divider"><path style="" fill="none" stroke-width="1.3" stroke="#999" d="M-108.39999389648438 -5.5 C-26.26942406822286 -5.5, 55.86114576003865 -5.5, 108.39999389648438 -5.5 M-108.39999389648438 -5.5 C-40.411465509769826 -5.5, 27.577062876944723 -5.5, 108.39999389648438 -5.5"></path></g><g style="" class="divider"><path style="" fill="none" stroke-width="1.3" stroke="#999" d="M-108.39999389648438 18.5 C-26.390555487339682 18.5, 55.61888292180501 18.5, 108.39999389648438 18.5 M-108.39999389648438 18.5 C-26.80124113125602 18.5, 54.797511633972334 18.5, 108.39999389648438 18.5"></path></g></g><g transform="translate(620.4041442871094, 94.5)" id="classId-PayPalPayment-688" class="node default"><g class="basic label-container"><path style="" fill="#eee" stroke-width="0" stroke="none" d="M-149.72915649414062 -75.5 L149.72915649414062 -75.5 L149.72915649414062 75.5 L-149.72915649414062 75.5"></path><path style="" fill="none" stroke-width="1.3" stroke="#999" d="M-149.72915649414062 -75.5 C-50.81506188091487 -75.5, 48.09903273231089 -75.5, 149.72915649414062 -75.5 M-149.72915649414062 -75.5 C-68.98380307142567 -75.5, 11.761550351289287 -75.5, 149.72915649414062 -75.5 M149.72915649414062 -75.5 C149.72915649414062 -31.209070872601977, 149.72915649414062 13.081858254796046, 149.72915649414062 75.5 M149.72915649414062 -75.5 C149.72915649414062 -31.85275193160721, 149.72915649414062 11.794496136785583, 149.72915649414062 75.5 M149.72915649414062 75.5 C47.83974278623836 75.5, -54.0496709216639 75.5, -149.72915649414062 75.5 M149.72915649414062 75.5 C53.68275769977747 75.5, -42.36364109458569 75.5, -149.72915649414062 75.5 M-149.72915649414062 75.5 C-149.72915649414062 20.933642273031708, -149.72915649414062 -33.632715453936584, -149.72915649414062 -75.5 M-149.72915649414062 75.5 C-149.72915649414062 26.15299094037701, -149.72915649414062 -23.194018119245982, -149.72915649414062 -75.5"></path></g><g transform="translate(0, -55.5)" class="annotation-group text"></g><g transform="translate(-55.99166488647461, -55.5)" class="label-group text"><g transform="translate(0,-9.5)" style="font-weight: bolder" class="label"><g><rect style="stroke: none" class="background"></rect><text style="" y="-10.1"><tspan font-weight="" dy="1.1em" y="-0.1em" x="0" class="text-outer-tspan"><tspan font-weight="" class="text-inner-tspan" font-style="normal">PayPalPayment</tspan></tspan></text></g></g></g><g transform="translate(-137.72915649414062, -12.5)" class="members-group text"><g transform="translate(0,-9.5)" style="" class="label"><g><rect style="stroke: none" class="background"></rect><text style="" y="-10.1"><tspan dy="1.1em" y="-0.1em" x="0" class="text-outer-tspan"><tspan font-weight="normal" class="text-inner-tspan" font-style="normal">-String</tspan><tspan font-weight="normal" class="text-inner-tspan" font-style="normal"> email</tspan></tspan></text></g></g></g><g transform="translate(-137.72915649414062, 30.5)" class="methods-group text"><g transform="translate(0,-9.5)" style="" class="label"><g><rect style="stroke: none" class="background"></rect><text style="" y="-10.1"><tspan dy="1.1em" y="-0.1em" x="0" class="text-outer-tspan"><tspan font-weight="normal" class="text-inner-tspan" font-style="normal">+PayPalPayment(email:</tspan><tspan font-weight="normal" class="text-inner-tspan" font-style="normal"> String)</tspan></tspan></text></g></g><g transform="translate(0,12.5)" style="" class="label"><g><rect style="stroke: none" class="background"></rect><text style="" y="-10.1"><tspan dy="1.1em" y="-0.1em" x="0" class="text-outer-tspan"><tspan font-weight="normal" class="text-inner-tspan" font-style="normal">+pay(amount:</tspan><tspan font-weight="normal" class="text-inner-tspan" font-style="normal"> int)</tspan></tspan></text></g></g></g><g style="" class="divider"><path style="" fill="none" stroke-width="1.3" stroke="#999" d="M-149.72915649414062 -32.5 C-83.57029509207709 -32.5, -17.411433690013553 -32.5, 149.72915649414062 -32.5 M-149.72915649414062 -32.5 C-30.374531676481354 -32.5, 88.98009314117792 -32.5, 149.72915649414062 -32.5"></path></g><g style="" class="divider"><path style="" fill="none" stroke-width="1.3" stroke="#999" d="M-149.72915649414062 10.5 C-45.15192218235768 10.5, 59.425312129425265 10.5, 149.72915649414062 10.5 M-149.72915649414062 10.5 C-41.92717394275435 10.5, 65.87480860863192 10.5, 149.72915649414062 10.5"></path></g></g><g transform="translate(1069.0166320800781, 94.5)" id="classId-CreditCardPayment-689" class="node default"><g class="basic label-container"><path style="" fill="#eee" stroke-width="0" stroke="none" d="M-248.88333129882812 -86.5 L248.88333129882812 -86.5 L248.88333129882812 86.5 L-248.88333129882812 86.5"></path><path style="" fill="none" stroke-width="1.3" stroke="#999" d="M-248.88333129882812 -86.5 C-133.7161067685533 -86.5, -18.548882238278424 -86.5, 248.88333129882812 -86.5 M-248.88333129882812 -86.5 C-105.09681494425732 -86.5, 38.68970141031349 -86.5, 248.88333129882812 -86.5 M248.88333129882812 -86.5 C248.88333129882812 -43.330729084432114, 248.88333129882812 -0.16145816886422892, 248.88333129882812 86.5 M248.88333129882812 -86.5 C248.88333129882812 -44.928263499698566, 248.88333129882812 -3.3565269993971327, 248.88333129882812 86.5 M248.88333129882812 86.5 C100.08111211372548 86.5, -48.72110707137716 86.5, -248.88333129882812 86.5 M248.88333129882812 86.5 C93.30578224926623 86.5, -62.271766800295666 86.5, -248.88333129882812 86.5 M-248.88333129882812 86.5 C-248.88333129882812 30.613116715931966, -248.88333129882812 -25.273766568136068, -248.88333129882812 -86.5 M-248.88333129882812 86.5 C-248.88333129882812 29.05031177368459, -248.88333129882812 -28.39937645263082, -248.88333129882812 -86.5"></path></g><g transform="translate(0, -66.5)" class="annotation-group text"></g><g transform="translate(-72.53333282470703, -66.5)" class="label-group text"><g transform="translate(0,-9.5)" style="font-weight: bolder" class="label"><g><rect style="stroke: none" class="background"></rect><text style="" y="-10.1"><tspan font-weight="" dy="1.1em" y="-0.1em" x="0" class="text-outer-tspan"><tspan font-weight="" class="text-inner-tspan" font-style="normal">CreditCardPayment</tspan></tspan></text></g></g></g><g transform="translate(-236.88333129882812, -23.5)" class="members-group text"><g transform="translate(0,-9.5)" style="" class="label"><g><rect style="stroke: none" class="background"></rect><text style="" y="-10.1"><tspan dy="1.1em" y="-0.1em" x="0" class="text-outer-tspan"><tspan font-weight="normal" class="text-inner-tspan" font-style="normal">-String</tspan><tspan font-weight="normal" class="text-inner-tspan" font-style="normal"> name</tspan></tspan></text></g></g><g transform="translate(0,12.5)" style="" class="label"><g><rect style="stroke: none" class="background"></rect><text style="" y="-10.1"><tspan dy="1.1em" y="-0.1em" x="0" class="text-outer-tspan"><tspan font-weight="normal" class="text-inner-tspan" font-style="normal">-String</tspan><tspan font-weight="normal" class="text-inner-tspan" font-style="normal"> cardNumber</tspan></tspan></text></g></g></g><g transform="translate(-236.88333129882812, 41.5)" class="methods-group text"><g transform="translate(0,-9.5)" style="" class="label"><g><rect style="stroke: none" class="background"></rect><text style="" y="-10.1"><tspan dy="1.1em" y="-0.1em" x="0" class="text-outer-tspan"><tspan font-weight="normal" class="text-inner-tspan" font-style="normal">+CreditCardPayment(name:</tspan><tspan font-weight="normal" class="text-inner-tspan" font-style="normal"> String,</tspan><tspan font-weight="normal" class="text-inner-tspan" font-style="normal"> cardNumber:</tspan><tspan font-weight="normal" class="text-inner-tspan" font-style="normal"> String)</tspan></tspan></text></g></g><g transform="translate(0,12.5)" style="" class="label"><g><rect style="stroke: none" class="background"></rect><text style="" y="-10.1"><tspan dy="1.1em" y="-0.1em" x="0" class="text-outer-tspan"><tspan font-weight="normal" class="text-inner-tspan" font-style="normal">+pay(amount:</tspan><tspan font-weight="normal" class="text-inner-tspan" font-style="normal"> int)</tspan></tspan></text></g></g></g><g style="" class="divider"><path style="" fill="none" stroke-width="1.3" stroke="#999" d="M-248.88333129882812 -43.5 C-93.53719571860455 -43.5, 61.808939861619024 -43.5, 248.88333129882812 -43.5 M-248.88333129882812 -43.5 C-127.80349362767355 -43.5, -6.723655956518968 -43.5, 248.88333129882812 -43.5"></path></g><g style="" class="divider"><path style="" fill="none" stroke-width="1.3" stroke="#999" d="M-248.88333129882812 21.5 C-127.93080187368227 21.5, -6.978272448536416 21.5, 248.88333129882812 21.5 M-248.88333129882812 21.5 C-89.17839741024545 21.5, 70.52653647833722 21.5, 248.88333129882812 21.5"></path></g></g><g transform="translate(214.33749389648438, 94.5)" id="classId-ShoppingCart-690" class="node default"><g class="basic label-container"><path style="" fill="#eee" stroke-width="0" stroke="none" d="M-206.33749389648438 -86.5 L206.33749389648438 -86.5 L206.33749389648438 86.5 L-206.33749389648438 86.5"></path><path style="" fill="none" stroke-width="1.3" stroke="#999" d="M-206.33749389648438 -86.5 C-120.83391261478303 -86.5, -35.33033133308169 -86.5, 206.33749389648438 -86.5 M-206.33749389648438 -86.5 C-49.96799190849404 -86.5, 106.40151007949629 -86.5, 206.33749389648438 -86.5 M206.33749389648438 -86.5 C206.33749389648438 -22.171846891063367, 206.33749389648438 42.156306217873265, 206.33749389648438 86.5 M206.33749389648438 -86.5 C206.33749389648438 -20.722504890893944, 206.33749389648438 45.05499021821211, 206.33749389648438 86.5 M206.33749389648438 86.5 C55.5974164116532 86.5, -95.14266107317798 86.5, -206.33749389648438 86.5 M206.33749389648438 86.5 C87.36221635981296 86.5, -31.61306117685845 86.5, -206.33749389648438 86.5 M-206.33749389648438 86.5 C-206.33749389648438 31.739443143116816, -206.33749389648438 -23.02111371376637, -206.33749389648438 -86.5 M-206.33749389648438 86.5 C-206.33749389648438 17.51883909363447, -206.33749389648438 -51.46232181273106, -206.33749389648438 -86.5"></path></g><g transform="translate(0, -66.5)" class="annotation-group text"></g><g transform="translate(-49.54166793823242, -66.5)" class="label-group text"><g transform="translate(0,-9.5)" style="font-weight: bolder" class="label"><g><rect style="stroke: none" class="background"></rect><text style="" y="-10.1"><tspan font-weight="" dy="1.1em" y="-0.1em" x="0" class="text-outer-tspan"><tspan font-weight="" class="text-inner-tspan" font-style="normal">ShoppingCart</tspan></tspan></text></g></g></g><g transform="translate(-194.33749389648438, -23.5)" class="members-group text"><g transform="translate(0,-9.5)" style="" class="label"><g><rect style="stroke: none" class="background"></rect><text style="" y="-10.1"><tspan dy="1.1em" y="-0.1em" x="0" class="text-outer-tspan"><tspan font-weight="normal" class="text-inner-tspan" font-style="normal">-List</tspan><tspan font-weight="normal" class="text-inner-tspan" font-style="normal"> items</tspan></tspan></text></g></g><g transform="translate(0,12.5)" style="" class="label"><g><rect style="stroke: none" class="background"></rect><text style="" y="-10.1"><tspan dy="1.1em" y="-0.1em" x="0" class="text-outer-tspan"><tspan font-weight="normal" class="text-inner-tspan" font-style="normal">-int</tspan><tspan font-weight="normal" class="text-inner-tspan" font-style="normal"> totalAmount</tspan></tspan></text></g></g></g><g transform="translate(-194.33749389648438, 41.5)" class="methods-group text"><g transform="translate(0,-9.5)" style="" class="label"><g><rect style="stroke: none" class="background"></rect><text style="" y="-10.1"><tspan dy="1.1em" y="-0.1em" x="0" class="text-outer-tspan"><tspan font-weight="normal" class="text-inner-tspan" font-style="normal">+addItem(item:</tspan><tspan font-weight="normal" class="text-inner-tspan" font-style="normal"> String,</tspan><tspan font-weight="normal" class="text-inner-tspan" font-style="normal"> price:</tspan><tspan font-weight="normal" class="text-inner-tspan" font-style="normal"> int)</tspan></tspan></text></g></g><g transform="translate(0,12.5)" style="" class="label"><g><rect style="stroke: none" class="background"></rect><text style="" y="-10.1"><tspan dy="1.1em" y="-0.1em" x="0" class="text-outer-tspan"><tspan font-weight="normal" class="text-inner-tspan" font-style="normal">+checkout(paymentStrategy:</tspan><tspan font-weight="normal" class="text-inner-tspan" font-style="normal"> PaymentStrategy)</tspan></tspan></text></g></g></g><g style="" class="divider"><path style="" fill="none" stroke-width="1.3" stroke="#999" d="M-206.33749389648438 -43.5 C-50.28536948896354 -43.5, 105.7667549185573 -43.5, 206.33749389648438 -43.5 M-206.33749389648438 -43.5 C-91.45982239161467 -43.5, 23.417849113255045 -43.5, 206.33749389648438 -43.5"></path></g><g style="" class="divider"><path style="" fill="none" stroke-width="1.3" stroke="#999" d="M-206.33749389648438 21.5 C-45.777305840060365 21.5, 114.78288221636365 21.5, 206.33749389648438 21.5 M-206.33749389648438 21.5 C-118.62415395323653 21.5, -30.910814009988684 21.5, 206.33749389648438 21.5"></path></g></g></g></g></g></svg>