<svg aria-roledescription="class" role="graphics-document document" viewBox="0 0 972.7416381835938 510" style="max-width: 972.7416381835938px;" class="classDiagram" xmlns="http://www.w3.org/2000/svg" width="100%" id="mermaidSvgId"><style>#mermaidSvgId{font-family:"trebuchet ms",verdana,arial,sans-serif;font-size:16px;fill:#000000;}#mermaidSvgId .error-icon{fill:#552222;}#mermaidSvgId .error-text{fill:#552222;stroke:#552222;}#mermaidSvgId .edge-thickness-normal{stroke-width:1px;}#mermaidSvgId .edge-thickness-thick{stroke-width:3.5px;}#mermaidSvgId .edge-pattern-solid{stroke-dasharray:0;}#mermaidSvgId .edge-thickness-invisible{stroke-width:0;fill:none;}#mermaidSvgId .edge-pattern-dashed{stroke-dasharray:3;}#mermaidSvgId .edge-pattern-dotted{stroke-dasharray:2;}#mermaidSvgId .marker{fill:#666;stroke:#666;}#mermaidSvgId .marker.cross{stroke:#666;}#mermaidSvgId svg{font-family:"trebuchet ms",verdana,arial,sans-serif;font-size:16px;}#mermaidSvgId p{margin:0;}#mermaidSvgId g.classGroup text{fill:#999;stroke:none;font-family:"trebuchet ms",verdana,arial,sans-serif;font-size:10px;}#mermaidSvgId g.classGroup text .title{font-weight:bolder;}#mermaidSvgId .nodeLabel,#mermaidSvgId .edgeLabel{color:#111111;}#mermaidSvgId .edgeLabel .label rect{fill:#eee;}#mermaidSvgId .label text{fill:#111111;}#mermaidSvgId .labelBkg{background:#eee;}#mermaidSvgId .edgeLabel .label span{background:#eee;}#mermaidSvgId .classTitle{font-weight:bolder;}#mermaidSvgId .node rect,#mermaidSvgId .node circle,#mermaidSvgId .node ellipse,#mermaidSvgId .node polygon,#mermaidSvgId .node path{fill:#eee;stroke:#999;stroke-width:1px;}#mermaidSvgId .divider{stroke:#999;stroke-width:1;}#mermaidSvgId g.clickable{cursor:pointer;}#mermaidSvgId g.classGroup rect{fill:#eee;stroke:#999;}#mermaidSvgId g.classGroup line{stroke:#999;stroke-width:1;}#mermaidSvgId .classLabel .box{stroke:none;stroke-width:0;fill:#eee;opacity:0.5;}#mermaidSvgId .classLabel .label{fill:#999;font-size:10px;}#mermaidSvgId .relation{stroke:#666;stroke-width:1;fill:none;}#mermaidSvgId .dashed-line{stroke-dasharray:3;}#mermaidSvgId .dotted-line{stroke-dasharray:1 2;}#mermaidSvgId #compositionStart,#mermaidSvgId .composition{fill:#666!important;stroke:#666!important;stroke-width:1;}#mermaidSvgId #compositionEnd,#mermaidSvgId .composition{fill:#666!important;stroke:#666!important;stroke-width:1;}#mermaidSvgId #dependencyStart,#mermaidSvgId .dependency{fill:#666!important;stroke:#666!important;stroke-width:1;}#mermaidSvgId #dependencyStart,#mermaidSvgId .dependency{fill:#666!important;stroke:#666!important;stroke-width:1;}#mermaidSvgId #extensionStart,#mermaidSvgId .extension{fill:transparent!important;stroke:#666!important;stroke-width:1;}#mermaidSvgId #extensionEnd,#mermaidSvgId .extension{fill:transparent!important;stroke:#666!important;stroke-width:1;}#mermaidSvgId #aggregationStart,#mermaidSvgId .aggregation{fill:transparent!important;stroke:#666!important;stroke-width:1;}#mermaidSvgId #aggregationEnd,#mermaidSvgId .aggregation{fill:transparent!important;stroke:#666!important;stroke-width:1;}#mermaidSvgId #lollipopStart,#mermaidSvgId .lollipop{fill:#eee!important;stroke:#666!important;stroke-width:1;}#mermaidSvgId #lollipopEnd,#mermaidSvgId .lollipop{fill:#eee!important;stroke:#666!important;stroke-width:1;}#mermaidSvgId .edgeTerminals{font-size:11px;line-height:initial;}#mermaidSvgId .classTitleText{text-anchor:middle;font-size:18px;fill:#000000;}#mermaidSvgId :root{--mermaid-font-family:"trebuchet ms",verdana,arial,sans-serif;}</style><g><defs><marker orient="auto" markerHeight="240" markerWidth="190" refY="7" refX="18" class="marker aggregation class" id="mermaidSvgId_class-aggregationStart"><path d="M 18,7 L9,13 L1,7 L9,1 Z"></path></marker></defs><defs><marker orient="auto" markerHeight="28" markerWidth="20" refY="7" refX="1" class="marker aggregation class" id="mermaidSvgId_class-aggregationEnd"><path d="M 18,7 L9,13 L1,7 L9,1 Z"></path></marker></defs><defs><marker orient="auto" markerHeight="240" markerWidth="190" refY="7" refX="18" class="marker extension class" id="mermaidSvgId_class-extensionStart"><path d="M 1,7 L18,13 V 1 Z"></path></marker></defs><defs><marker orient="auto" markerHeight="28" markerWidth="20" refY="7" refX="1" class="marker extension class" id="mermaidSvgId_class-extensionEnd"><path d="M 1,1 V 13 L18,7 Z"></path></marker></defs><defs><marker orient="auto" markerHeight="240" markerWidth="190" refY="7" refX="18" class="marker composition class" id="mermaidSvgId_class-compositionStart"><path d="M 18,7 L9,13 L1,7 L9,1 Z"></path></marker></defs><defs><marker orient="auto" markerHeight="28" markerWidth="20" refY="7" refX="1" class="marker composition class" id="mermaidSvgId_class-compositionEnd"><path d="M 18,7 L9,13 L1,7 L9,1 Z"></path></marker></defs><defs><marker orient="auto" markerHeight="240" markerWidth="190" refY="7" refX="6" class="marker dependency class" id="mermaidSvgId_class-dependencyStart"><path d="M 5,7 L9,13 L1,7 L9,1 Z"></path></marker></defs><defs><marker orient="auto" markerHeight="28" markerWidth="20" refY="7" refX="13" class="marker dependency class" id="mermaidSvgId_class-dependencyEnd"><path d="M 18,7 L9,13 L14,7 L9,1 Z"></path></marker></defs><defs><marker orient="auto" markerHeight="240" markerWidth="190" refY="7" refX="13" class="marker lollipop class" id="mermaidSvgId_class-lollipopStart"><circle r="6" cy="7" cx="7" fill="transparent" stroke="black"></circle></marker></defs><defs><marker orient="auto" markerHeight="240" markerWidth="190" refY="7" refX="1" class="marker lollipop class" id="mermaidSvgId_class-lollipopEnd"><circle r="6" cy="7" cx="7" fill="transparent" stroke="black"></circle></marker></defs><g class="root"><g class="clusters"></g><g class="edgePaths"><path marker-end="url(#mermaidSvgId_class-dependencyEnd)" style=";" class="edge-thickness-normal edge-pattern-solid relation" id="id_HomeTheaterFacade_Amplifier_1" d="M209.568,247L194.136,253.083C178.704,259.167,147.839,271.333,132.407,284.333C116.975,297.333,116.975,311.167,116.975,318.083L116.975,325"></path><path marker-end="url(#mermaidSvgId_class-dependencyEnd)" style=";" class="edge-thickness-normal edge-pattern-solid relation" id="id_HomeTheaterFacade_DVDPlayer_2" d="M411.103,247L405.93,253.083C400.757,259.167,390.412,271.333,385.239,282.5C380.067,293.667,380.067,303.833,380.067,308.917L380.067,314"></path><path marker-end="url(#mermaidSvgId_class-dependencyEnd)" style=";" class="edge-thickness-normal edge-pattern-solid relation" id="id_HomeTheaterFacade_Projector_3" d="M614.326,247L619.499,253.083C624.672,259.167,635.017,271.333,640.19,284.333C645.363,297.333,645.363,311.167,645.363,318.083L645.363,325"></path><path marker-end="url(#mermaidSvgId_class-dependencyEnd)" style=";" class="edge-thickness-normal edge-pattern-solid relation" id="id_HomeTheaterFacade_Lights_4" d="M798.386,247L812.929,253.083C827.471,259.167,856.557,271.333,871.099,288C885.642,304.667,885.642,325.833,885.642,336.417L885.642,347"></path></g><g class="edgeLabels"><g transform="translate(116.9749984741211, 283.5)" class="edgeLabel"><g transform="translate(-17.225000381469727, -11.5)" class="label"><g><rect height="23" width="34.45000076293945" y="-0.9999996423721313" x="-2" style=";display: inline-block" class="background"></rect><text style=";display: inline-block" y="-10.1"><tspan dy="1.1em" y="-0.1em" x="0" class="text-outer-tspan"><tspan font-weight="normal" class="text-inner-tspan" font-style="normal">uses</tspan></tspan></text></g></g></g><g transform="translate(380.06666564941406, 283.5)" class="edgeLabel"><g transform="translate(-17.225000381469727, -11.5)" class="label"><g><rect height="23" width="34.45000076293945" y="-0.9999996423721313" x="-2" style=";display: inline-block" class="background"></rect><text style=";display: inline-block" y="-10.1"><tspan dy="1.1em" y="-0.1em" x="0" class="text-outer-tspan"><tspan font-weight="normal" class="text-inner-tspan" font-style="normal">uses</tspan></tspan></text></g></g></g><g transform="translate(645.3625030517578, 283.5)" class="edgeLabel"><g transform="translate(-17.225000381469727, -11.5)" class="label"><g><rect height="23" width="34.45000076293945" y="-0.9999996423721313" x="-2" style=";display: inline-block" class="background"></rect><text style=";display: inline-block" y="-10.1"><tspan dy="1.1em" y="-0.1em" x="0" class="text-outer-tspan"><tspan font-weight="normal" class="text-inner-tspan" font-style="normal">uses</tspan></tspan></text></g></g></g><g transform="translate(885.6416702270508, 283.5)" class="edgeLabel"><g transform="translate(-17.225000381469727, -11.5)" class="label"><g><rect height="23" width="34.45000076293945" y="-0.9999996423721313" x="-2" style=";display: inline-block" class="background"></rect><text style=";display: inline-block" y="-10.1"><tspan dy="1.1em" y="-0.1em" x="0" class="text-outer-tspan"><tspan font-weight="normal" class="text-inner-tspan" font-style="normal">uses</tspan></tspan></text></g></g></g></g><g class="nodes"><g transform="translate(116.9749984741211, 411)" id="classId-Amplifier-178" class="node default"><g class="basic label-container"><path style="" fill="#eee" stroke-width="0" stroke="none" d="M-108.9749984741211 -80 L108.9749984741211 -80 L108.9749984741211 80 L-108.9749984741211 80"></path><path style="" fill="none" stroke-width="1.3" stroke="#999" d="M-108.9749984741211 -80 C-47.760011273804885 -80, 13.454975926511324 -80, 108.9749984741211 -80 M-108.9749984741211 -80 C-53.59982368615482 -80, 1.7753511018114523 -80, 108.9749984741211 -80 M108.9749984741211 -80 C108.9749984741211 -41.92212073162628, 108.9749984741211 -3.8442414632525583, 108.9749984741211 80 M108.9749984741211 -80 C108.9749984741211 -16.051918024991487, 108.9749984741211 47.896163950017026, 108.9749984741211 80 M108.9749984741211 80 C38.80681224695773 80, -31.361373980205627 80, -108.9749984741211 80 M108.9749984741211 80 C28.738038023991905 80, -51.498922426137284 80, -108.9749984741211 80 M-108.9749984741211 80 C-108.9749984741211 21.63195907337402, -108.9749984741211 -36.73608185325196, -108.9749984741211 -80 M-108.9749984741211 80 C-108.9749984741211 21.012676394542368, -108.9749984741211 -37.974647210915265, -108.9749984741211 -80"></path></g><g transform="translate(0, -60)" class="annotation-group text"></g><g transform="translate(-34.70000076293945, -60)" class="label-group text"><g transform="translate(0,-9.5)" style="font-weight: bolder" class="label"><g><rect style="stroke: none" class="background"></rect><text style="" y="-10.1"><tspan font-weight="" dy="1.1em" y="-0.1em" x="0" class="text-outer-tspan"><tspan font-weight="" class="text-inner-tspan" font-style="normal">Amplifier</tspan></tspan></text></g></g></g><g transform="translate(-96.9749984741211, -17)" class="members-group text"></g><g transform="translate(-96.9749984741211, 13)" class="methods-group text"><g transform="translate(0,-9.5)" style="" class="label"><g><rect style="stroke: none" class="background"></rect><text style="" y="-10.1"><tspan dy="1.1em" y="-0.1em" x="0" class="text-outer-tspan"><tspan font-weight="normal" class="text-inner-tspan" font-style="normal">+on()</tspan></tspan></text></g></g><g transform="translate(0,12.5)" style="" class="label"><g><rect style="stroke: none" class="background"></rect><text style="" y="-10.1"><tspan dy="1.1em" y="-0.1em" x="0" class="text-outer-tspan"><tspan font-weight="normal" class="text-inner-tspan" font-style="normal">+setVolume(level:</tspan><tspan font-weight="normal" class="text-inner-tspan" font-style="normal"> int)</tspan></tspan></text></g></g><g transform="translate(0,34.5)" style="" class="label"><g><rect style="stroke: none" class="background"></rect><text style="" y="-10.1"><tspan dy="1.1em" y="-0.1em" x="0" class="text-outer-tspan"><tspan font-weight="normal" class="text-inner-tspan" font-style="normal">+off()</tspan></tspan></text></g></g></g><g style="" class="divider"><path style="" fill="none" stroke-width="1.3" stroke="#999" d="M-108.9749984741211 -37 C-46.12279382460504 -37, 16.729410824911014 -37, 108.9749984741211 -37 M-108.9749984741211 -37 C-48.00716091560358 -37, 12.960676642913938 -37, 108.9749984741211 -37"></path></g><g style="" class="divider"><path style="" fill="none" stroke-width="1.3" stroke="#999" d="M-108.9749984741211 -13 C-44.190173614474446 -13, 20.5946512451722 -13, 108.9749984741211 -13 M-108.9749984741211 -13 C-44.388611219665805 -13, 20.197776034789484 -13, 108.9749984741211 -13"></path></g></g><g transform="translate(380.06666564941406, 411)" id="classId-DVDPlayer-179" class="node default"><g class="basic label-container"><path style="" fill="#eee" stroke-width="0" stroke="none" d="M-104.11666870117188 -91 L104.11666870117188 -91 L104.11666870117188 91 L-104.11666870117188 91"></path><path style="" fill="none" stroke-width="1.3" stroke="#999" d="M-104.11666870117188 -91 C-26.928234214720433 -91, 50.26020027173101 -91, 104.11666870117188 -91 M-104.11666870117188 -91 C-57.19942396445558 -91, -10.282179227739292 -91, 104.11666870117188 -91 M104.11666870117188 -91 C104.11666870117188 -41.76569645760669, 104.11666870117188 7.468607084786626, 104.11666870117188 91 M104.11666870117188 -91 C104.11666870117188 -37.91264185364946, 104.11666870117188 15.174716292701078, 104.11666870117188 91 M104.11666870117188 91 C48.77547567746584 91, -6.565717346240191 91, -104.11666870117188 91 M104.11666870117188 91 C57.11723520343812 91, 10.117801705704366 91, -104.11666870117188 91 M-104.11666870117188 91 C-104.11666870117188 39.55526138727683, -104.11666870117188 -11.889477225446342, -104.11666870117188 -91 M-104.11666870117188 91 C-104.11666870117188 35.749278203011194, -104.11666870117188 -19.501443593977612, -104.11666870117188 -91"></path></g><g transform="translate(0, -71)" class="annotation-group text"></g><g transform="translate(-38.849998474121094, -71)" class="label-group text"><g transform="translate(0,-9.5)" style="font-weight: bolder" class="label"><g><rect style="stroke: none" class="background"></rect><text style="" y="-10.1"><tspan font-weight="" dy="1.1em" y="-0.1em" x="0" class="text-outer-tspan"><tspan font-weight="" class="text-inner-tspan" font-style="normal">DVDPlayer</tspan></tspan></text></g></g></g><g transform="translate(-92.11666870117188, -28)" class="members-group text"></g><g transform="translate(-92.11666870117188, 2)" class="methods-group text"><g transform="translate(0,-9.5)" style="" class="label"><g><rect style="stroke: none" class="background"></rect><text style="" y="-10.1"><tspan dy="1.1em" y="-0.1em" x="0" class="text-outer-tspan"><tspan font-weight="normal" class="text-inner-tspan" font-style="normal">+on()</tspan></tspan></text></g></g><g transform="translate(0,12.5)" style="" class="label"><g><rect style="stroke: none" class="background"></rect><text style="" y="-10.1"><tspan dy="1.1em" y="-0.1em" x="0" class="text-outer-tspan"><tspan font-weight="normal" class="text-inner-tspan" font-style="normal">+play(movie:</tspan><tspan font-weight="normal" class="text-inner-tspan" font-style="normal"> String)</tspan></tspan></text></g></g><g transform="translate(0,34.5)" style="" class="label"><g><rect style="stroke: none" class="background"></rect><text style="" y="-10.1"><tspan dy="1.1em" y="-0.1em" x="0" class="text-outer-tspan"><tspan font-weight="normal" class="text-inner-tspan" font-style="normal">+stop()</tspan></tspan></text></g></g><g transform="translate(0,56.5)" style="" class="label"><g><rect style="stroke: none" class="background"></rect><text style="" y="-10.1"><tspan dy="1.1em" y="-0.1em" x="0" class="text-outer-tspan"><tspan font-weight="normal" class="text-inner-tspan" font-style="normal">+off()</tspan></tspan></text></g></g></g><g style="" class="divider"><path style="" fill="none" stroke-width="1.3" stroke="#999" d="M-104.11666870117188 -48 C-41.95730208835 -48, 20.20206452447188 -48, 104.11666870117188 -48 M-104.11666870117188 -48 C-47.91772345272377 -48, 8.281221795724335 -48, 104.11666870117188 -48"></path></g><g style="" class="divider"><path style="" fill="none" stroke-width="1.3" stroke="#999" d="M-104.11666870117188 -24 C-51.63487074350082 -24, 0.8469272141702362 -24, 104.11666870117188 -24 M-104.11666870117188 -24 C-35.6139716843506 -24, 32.88872533247067 -24, 104.11666870117188 -24"></path></g></g><g transform="translate(512.7145843505859, 127.5)" id="classId-HomeTheaterFacade-180" class="node default"><g class="basic label-container"><path style="" fill="#eee" stroke-width="0" stroke="none" d="M-414.10418701171875 -119.5 L414.10418701171875 -119.5 L414.10418701171875 119.5 L-414.10418701171875 119.5"></path><path style="" fill="none" stroke-width="1.3" stroke="#999" d="M-414.10418701171875 -119.5 C-240.05598956715565 -119.5, -66.00779212259255 -119.5, 414.10418701171875 -119.5 M-414.10418701171875 -119.5 C-198.73388876899202 -119.5, 16.636409473734716 -119.5, 414.10418701171875 -119.5 M414.10418701171875 -119.5 C414.10418701171875 -65.81161591784827, 414.10418701171875 -12.123231835696544, 414.10418701171875 119.5 M414.10418701171875 -119.5 C414.10418701171875 -24.545591655716564, 414.10418701171875 70.40881668856687, 414.10418701171875 119.5 M414.10418701171875 119.5 C194.24453067827938 119.5, -25.61512565516 119.5, -414.10418701171875 119.5 M414.10418701171875 119.5 C123.7837560025356 119.5, -166.53667500664756 119.5, -414.10418701171875 119.5 M-414.10418701171875 119.5 C-414.10418701171875 25.039006622566603, -414.10418701171875 -69.4219867548668, -414.10418701171875 -119.5 M-414.10418701171875 119.5 C-414.10418701171875 29.197287548260007, -414.10418701171875 -61.105424903479985, -414.10418701171875 -119.5"></path></g><g transform="translate(0, -99.5)" class="annotation-group text"></g><g transform="translate(-77.29166412353516, -99.5)" class="label-group text"><g transform="translate(0,-9.5)" style="font-weight: bolder" class="label"><g><rect style="stroke: none" class="background"></rect><text style="" y="-10.1"><tspan font-weight="" dy="1.1em" y="-0.1em" x="0" class="text-outer-tspan"><tspan font-weight="" class="text-inner-tspan" font-style="normal">HomeTheaterFacade</tspan></tspan></text></g></g></g><g transform="translate(-402.10418701171875, -56.5)" class="members-group text"><g transform="translate(0,-9.5)" style="" class="label"><g><rect style="stroke: none" class="background"></rect><text style="" y="-10.1"><tspan dy="1.1em" y="-0.1em" x="0" class="text-outer-tspan"><tspan font-weight="normal" class="text-inner-tspan" font-style="normal">-Amplifier</tspan><tspan font-weight="normal" class="text-inner-tspan" font-style="normal"> amplifier</tspan></tspan></text></g></g><g transform="translate(0,12.5)" style="" class="label"><g><rect style="stroke: none" class="background"></rect><text style="" y="-10.1"><tspan dy="1.1em" y="-0.1em" x="0" class="text-outer-tspan"><tspan font-weight="normal" class="text-inner-tspan" font-style="normal">-DVDPlayer</tspan><tspan font-weight="normal" class="text-inner-tspan" font-style="normal"> dvdPlayer</tspan></tspan></text></g></g><g transform="translate(0,34.5)" style="" class="label"><g><rect style="stroke: none" class="background"></rect><text style="" y="-10.1"><tspan dy="1.1em" y="-0.1em" x="0" class="text-outer-tspan"><tspan font-weight="normal" class="text-inner-tspan" font-style="normal">-Projector</tspan><tspan font-weight="normal" class="text-inner-tspan" font-style="normal"> projector</tspan></tspan></text></g></g><g transform="translate(0,56.5)" style="" class="label"><g><rect style="stroke: none" class="background"></rect><text style="" y="-10.1"><tspan dy="1.1em" y="-0.1em" x="0" class="text-outer-tspan"><tspan font-weight="normal" class="text-inner-tspan" font-style="normal">-Lights</tspan><tspan font-weight="normal" class="text-inner-tspan" font-style="normal"> lights</tspan></tspan></text></g></g></g><g transform="translate(-402.10418701171875, 52.5)" class="methods-group text"><g transform="translate(0,-9.5)" style="" class="label"><g><rect style="stroke: none" class="background"></rect><text style="" y="-10.1"><tspan dy="1.1em" y="-0.1em" x="0" class="text-outer-tspan"><tspan font-weight="normal" class="text-inner-tspan" font-style="normal">+HomeTheaterFacade(amplifier:</tspan><tspan font-weight="normal" class="text-inner-tspan" font-style="normal"> Amplifier,</tspan><tspan font-weight="normal" class="text-inner-tspan" font-style="normal"> dvdPlayer:</tspan><tspan font-weight="normal" class="text-inner-tspan" font-style="normal"> DVDPlayer,</tspan><tspan font-weight="normal" class="text-inner-tspan" font-style="normal"> projector:</tspan><tspan font-weight="normal" class="text-inner-tspan" font-style="normal"> Projector,</tspan><tspan font-weight="normal" class="text-inner-tspan" font-style="normal"> lights:</tspan><tspan font-weight="normal" class="text-inner-tspan" font-style="normal"> Lights)</tspan></tspan></text></g></g><g transform="translate(0,12.5)" style="" class="label"><g><rect style="stroke: none" class="background"></rect><text style="" y="-10.1"><tspan dy="1.1em" y="-0.1em" x="0" class="text-outer-tspan"><tspan font-weight="normal" class="text-inner-tspan" font-style="normal">+watchMovie(movie:</tspan><tspan font-weight="normal" class="text-inner-tspan" font-style="normal"> String)</tspan></tspan></text></g></g><g transform="translate(0,34.5)" style="" class="label"><g><rect style="stroke: none" class="background"></rect><text style="" y="-10.1"><tspan dy="1.1em" y="-0.1em" x="0" class="text-outer-tspan"><tspan font-weight="normal" class="text-inner-tspan" font-style="normal">+endMovie()</tspan></tspan></text></g></g></g><g style="" class="divider"><path style="" fill="none" stroke-width="1.3" stroke="#999" d="M-414.10418701171875 -76.5 C-225.25764264946042 -76.5, -36.411098287202094 -76.5, 414.10418701171875 -76.5 M-414.10418701171875 -76.5 C-133.55118715062588 -76.5, 147.001812710467 -76.5, 414.10418701171875 -76.5"></path></g><g style="" class="divider"><path style="" fill="none" stroke-width="1.3" stroke="#999" d="M-414.10418701171875 32.5 C-113.95373358373382 32.5, 186.1967198442511 32.5, 414.10418701171875 32.5 M-414.10418701171875 32.5 C-174.99409567962843 32.5, 64.11599565246189 32.5, 414.10418701171875 32.5"></path></g></g><g transform="translate(885.6416702270508, 411)" id="classId-Lights-181" class="node default"><g class="basic label-container"><path style="" fill="#eee" stroke-width="0" stroke="none" d="M-79.0999984741211 -58 L79.0999984741211 -58 L79.0999984741211 58 L-79.0999984741211 58"></path><path style="" fill="none" stroke-width="1.3" stroke="#999" d="M-79.0999984741211 -58 C-33.140678144807005 -58, 12.818642184507084 -58, 79.0999984741211 -58 M-79.0999984741211 -58 C-20.11525807295895 -58, 38.86948232820319 -58, 79.0999984741211 -58 M79.0999984741211 -58 C79.0999984741211 -18.930767041177575, 79.0999984741211 20.13846591764485, 79.0999984741211 58 M79.0999984741211 -58 C79.0999984741211 -25.53283754948515, 79.0999984741211 6.934324901029697, 79.0999984741211 58 M79.0999984741211 58 C16.158294723728908 58, -46.78340902666328 58, -79.0999984741211 58 M79.0999984741211 58 C23.48579935549543 58, -32.12839976313023 58, -79.0999984741211 58 M-79.0999984741211 58 C-79.0999984741211 21.697513455500612, -79.0999984741211 -14.604973088998776, -79.0999984741211 -58 M-79.0999984741211 58 C-79.0999984741211 33.39345007429894, -79.0999984741211 8.786900148597873, -79.0999984741211 -58"></path></g><g transform="translate(0, -38)" class="annotation-group text"></g><g transform="translate(-22.183332443237305, -38)" class="label-group text"><g transform="translate(0,-9.5)" style="font-weight: bolder" class="label"><g><rect style="stroke: none" class="background"></rect><text style="" y="-10.1"><tspan font-weight="" dy="1.1em" y="-0.1em" x="0" class="text-outer-tspan"><tspan font-weight="" class="text-inner-tspan" font-style="normal">Lights</tspan></tspan></text></g></g></g><g transform="translate(-67.0999984741211, 5)" class="members-group text"></g><g transform="translate(-67.0999984741211, 35)" class="methods-group text"><g transform="translate(0,-9.5)" style="" class="label"><g><rect style="stroke: none" class="background"></rect><text style="" y="-10.1"><tspan dy="1.1em" y="-0.1em" x="0" class="text-outer-tspan"><tspan font-weight="normal" class="text-inner-tspan" font-style="normal">+dim(level:</tspan><tspan font-weight="normal" class="text-inner-tspan" font-style="normal"> int)</tspan></tspan></text></g></g></g><g style="" class="divider"><path style="" fill="none" stroke-width="1.3" stroke="#999" d="M-79.0999984741211 -15 C-26.788712815432582 -15, 25.52257284325593 -15, 79.0999984741211 -15 M-79.0999984741211 -15 C-28.28955170619163 -15, 22.520895061737832 -15, 79.0999984741211 -15"></path></g><g style="" class="divider"><path style="" fill="none" stroke-width="1.3" stroke="#999" d="M-79.0999984741211 9 C-21.06418481165273 9, 36.971628850815634 9, 79.0999984741211 9 M-79.0999984741211 9 C-42.5120632065247 9, -5.924127938928308 9, 79.0999984741211 9"></path></g></g><g transform="translate(645.3625030517578, 411)" id="classId-Projector-182" class="node default"><g class="basic label-container"><path style="" fill="#eee" stroke-width="0" stroke="none" d="M-111.17916870117188 -80 L111.17916870117188 -80 L111.17916870117188 80 L-111.17916870117188 80"></path><path style="" fill="none" stroke-width="1.3" stroke="#999" d="M-111.17916870117188 -80 C-37.089148216687406 -80, 37.000872267797064 -80, 111.17916870117188 -80 M-111.17916870117188 -80 C-61.884431324868665 -80, -12.589693948565454 -80, 111.17916870117188 -80 M111.17916870117188 -80 C111.17916870117188 -39.825308213091816, 111.17916870117188 0.3493835738163682, 111.17916870117188 80 M111.17916870117188 -80 C111.17916870117188 -33.836199648939996, 111.17916870117188 12.327600702120009, 111.17916870117188 80 M111.17916870117188 80 C53.66747257593399 80, -3.8442235493038908 80, -111.17916870117188 80 M111.17916870117188 80 C26.207704226925358 80, -58.76376024732116 80, -111.17916870117188 80 M-111.17916870117188 80 C-111.17916870117188 42.22306226830433, -111.17916870117188 4.446124536608664, -111.17916870117188 -80 M-111.17916870117188 80 C-111.17916870117188 23.92910784197167, -111.17916870117188 -32.14178431605666, -111.17916870117188 -80"></path></g><g transform="translate(0, -60)" class="annotation-group text"></g><g transform="translate(-35.375, -60)" class="label-group text"><g transform="translate(0,-9.5)" style="font-weight: bolder" class="label"><g><rect style="stroke: none" class="background"></rect><text style="" y="-10.1"><tspan font-weight="" dy="1.1em" y="-0.1em" x="0" class="text-outer-tspan"><tspan font-weight="" class="text-inner-tspan" font-style="normal">Projector</tspan></tspan></text></g></g></g><g transform="translate(-99.17916870117188, -17)" class="members-group text"></g><g transform="translate(-99.17916870117188, 13)" class="methods-group text"><g transform="translate(0,-9.5)" style="" class="label"><g><rect style="stroke: none" class="background"></rect><text style="" y="-10.1"><tspan dy="1.1em" y="-0.1em" x="0" class="text-outer-tspan"><tspan font-weight="normal" class="text-inner-tspan" font-style="normal">+on()</tspan></tspan></text></g></g><g transform="translate(0,12.5)" style="" class="label"><g><rect style="stroke: none" class="background"></rect><text style="" y="-10.1"><tspan dy="1.1em" y="-0.1em" x="0" class="text-outer-tspan"><tspan font-weight="normal" class="text-inner-tspan" font-style="normal">+setWideScreenMode()</tspan></tspan></text></g></g><g transform="translate(0,34.5)" style="" class="label"><g><rect style="stroke: none" class="background"></rect><text style="" y="-10.1"><tspan dy="1.1em" y="-0.1em" x="0" class="text-outer-tspan"><tspan font-weight="normal" class="text-inner-tspan" font-style="normal">+off()</tspan></tspan></text></g></g></g><g style="" class="divider"><path style="" fill="none" stroke-width="1.3" stroke="#999" d="M-111.17916870117188 -37 C-40.90413978625823 -37, 29.37088912865542 -37, 111.17916870117188 -37 M-111.17916870117188 -37 C-42.73580402477832 -37, 25.70756065161524 -37, 111.17916870117188 -37"></path></g><g style="" class="divider"><path style="" fill="none" stroke-width="1.3" stroke="#999" d="M-111.17916870117188 -13 C-33.53375346602111 -13, 44.111661769129654 -13, 111.17916870117188 -13 M-111.17916870117188 -13 C-32.576834242235776 -13, 46.02550021670032 -13, 111.17916870117188 -13"></path></g></g></g></g></g></svg>